<?xml version="1.0" encoding="utf-8"?>
<!-- Generator: Adobe Illustrator 24.3.0, SVG Export Plug-In . SVG Version: 6.00 Build 0)  -->
<svg version="1.1"
	 id="Layer_1" shape-rendering="geometricPrecision" text-rendering="geometricPrecision" image-rendering="optimizeQuality"
	 xmlns="http://www.w3.org/2000/svg" xmlns:xlink="http://www.w3.org/1999/xlink" x="0px" y="0px" viewBox="0 0 343 157"
	 style="enable-background:new 0 0 343 157;" xml:space="preserve">
<style type="text/css">
	.st0{fill:#FFFFFF;}
</style>
<g>
	<path class="st0" d="M7.8,12.7h12.5c4,0,6.9,0.3,9,0.9c2,0.6,3.7,1.9,4.9,3.7c1.3,1.9,1.9,4.9,1.9,9.1c0,2.8-0.4,4.8-1.3,5.9
		c-0.9,1.1-2.6,2-5.2,2.6c2.9,0.7,4.9,1.7,5.9,3.3c1,1.5,1.5,3.8,1.5,7v4.5c0,3.3-0.4,5.7-1.1,7.2c-0.7,1.6-1.9,2.6-3.6,3.2
		c-1.6,0.6-5,0.9-10,0.9H7.8V12.7z M20.3,21v10.7c0.5,0,1,0,1.3,0c1.2,0,2-0.3,2.4-0.9c0.3-0.6,0.5-2.3,0.5-5.2
		c0-1.5-0.1-2.6-0.4-3.2c-0.3-0.6-0.6-1-1.1-1.1C22.5,21.1,21.6,21,20.3,21z M20.3,39.2v13.5c1.8-0.1,2.9-0.3,3.4-0.8
		c0.5-0.5,0.7-1.7,0.7-3.7v-4.5c0-2.1-0.2-3.3-0.7-3.8C23.4,39.5,22.2,39.2,20.3,39.2z"/>
	<path class="st0" d="M66.9,12.7L62.5,34l6.6,26.9H57.5c-1.4-4.8-2.7-10.7-3.8-17.6c-0.3,3.1-0.8,6.3-1.3,9.7l-1.2,7.9H39L43.6,34
		L39,12.7h12.1c0.2,1.3,0.7,3.5,1.3,6.6c0.5,2.4,1,4.5,1.3,6.5l2.7-13.2H66.9z"/>
	<path class="st0" d="M83.4,12.7v48.2H70.9V12.7H83.4z"/>
	<path class="st0" d="M124.3,69.2h-8.7v-8.3H95.4v8.3h-8.6V50.9h2.6c1.4-4,2.5-9.1,3.3-15.6c0.9-6.4,1.3-13.5,1.3-21.1v-1.5h27.8
		v38.1h2.6V69.2z M109.2,50.8V22.2h-3.7v0.4c0,9.2-1,18.6-3,28.2H109.2z"/>
	<path class="st0" d="M157.1,12.7v48.2h-12.5V40.7h-3.8v20.3h-12.5V12.7h12.5V30h3.8V12.7H157.1z"/>
	<path class="st0" d="M174.6,12.7v48.2h-12.5V12.7H174.6z"/>
	<path class="st0" d="M226.3,69.2h-8.7v-8.3h-20.3v8.3h-8.6V50.9h2.6c1.4-4,2.5-9.1,3.3-15.6c0.9-6.4,1.3-13.5,1.3-21.1v-1.5h27.8
		v38.1h2.6V69.2z M211.1,50.8V22.2h-3.7v0.4c0,9.2-1,18.6-3,28.2H211.1z"/>
	<path class="st0" d="M230.2,12.7h12.5c3.9,0,6.9,0.3,9,0.9c2,0.6,3.7,1.9,4.9,3.7c1.3,1.9,1.9,4.9,1.9,9.1c0,2.8-0.4,4.8-1.3,5.9
		c-0.9,1.1-2.6,2-5.2,2.6c2.9,0.7,4.9,1.7,5.9,3.3c1,1.5,1.5,3.8,1.5,7v4.5c0,3.3-0.4,5.7-1.1,7.2c-0.7,1.6-1.9,2.6-3.6,3.2
		c-1.6,0.6-5,0.9-10,0.9h-14.5V12.7z M242.7,21v10.7c0.5,0,1,0,1.3,0c1.2,0,2-0.3,2.4-0.9c0.3-0.6,0.5-2.3,0.5-5.2
		c0-1.5-0.1-2.6-0.4-3.2c-0.3-0.6-0.6-1-1.1-1.1C244.9,21.1,244,21,242.7,21z M242.7,39.2v13.5c1.8-0.1,2.9-0.3,3.4-0.8
		c0.5-0.5,0.7-1.7,0.7-3.7v-4.5c0-2.1-0.2-3.3-0.7-3.8C245.7,39.5,244.6,39.2,242.7,39.2z"/>
	<path class="st0" d="M263.9,12.7h20.9v9.6h-8.4v9.1h7.8v9.2h-7.8v10.6h9.2v9.6h-21.7V12.7z"/>
	<path class="st0" d="M289.2,12.7h12.6c3.4,0,6,0.3,7.9,0.8c1.8,0.5,3.2,1.3,4.1,2.3c0.9,1,1.5,2.2,1.9,3.7c0.3,1.4,0.5,3.7,0.5,6.7
		v4.2c0,3.1-0.3,5.3-1,6.7c-0.6,1.4-1.8,2.5-3.5,3.2c-1.7,0.8-3.9,1.1-6.7,1.1h-3.4v19.4h-12.5V12.7z M301.7,21v12.3
		c0.4,0,0.7,0,0.9,0c1.2,0,2-0.3,2.4-0.8c0.4-0.6,0.7-1.7,0.7-3.5v-4c0-1.6-0.3-2.7-0.8-3.2C304.4,21.2,303.4,21,301.7,21z"/>
	<path class="st0" d="M332.4,12.7v48.2h-12.5V12.7H332.4z"/>
	<path class="st0" d="M33.6,85.9h12.5c4,0,6.9,0.3,9,0.9c2,0.6,3.7,1.9,4.9,3.7c1.3,1.9,1.9,4.9,1.9,9.1c0,2.8-0.4,4.8-1.3,5.9
		c-0.9,1.1-2.6,2-5.2,2.6c2.9,0.7,4.9,1.7,5.9,3.3c1,1.5,1.5,3.8,1.5,7v4.5c0,3.3-0.4,5.7-1.1,7.2c-0.7,1.6-1.9,2.6-3.6,3.2
		c-1.6,0.6-5,0.9-10,0.9H33.6V85.9z M46.1,94.2v10.7c0.5,0,1,0,1.3,0c1.2,0,2-0.3,2.4-0.9c0.3-0.6,0.5-2.3,0.5-5.2
		c0-1.5-0.1-2.6-0.4-3.2c-0.3-0.6-0.6-1-1.1-1.1C48.3,94.3,47.4,94.2,46.1,94.2z M46.1,112.4v13.5c1.8-0.1,2.9-0.3,3.4-0.8
		c0.5-0.5,0.7-1.7,0.7-3.7v-4.5c0-2.1-0.2-3.3-0.7-3.8C49.1,112.7,48,112.4,46.1,112.4z"/>
	<path class="st0" d="M107.2,122.8c0,3.6-0.5,6.2-1.4,7.7c-0.9,1.6-2.3,2.6-4.2,2.9c-1.9,0.4-4.9,0.6-9.1,0.6H78V85.9h24.6v8.4h-12
		v8.2h1.9c3.9,0,6.8,0.2,8.8,0.7c2,0.5,3.5,1.5,4.5,3c1,1.6,1.5,4,1.5,7.3V122.8z M94.6,121.4v-7c0-2-0.2-3.3-0.6-3.7
		c-0.4-0.4-1.6-0.7-3.5-0.7v15.8c1.6,0,2.7-0.2,3.2-0.6C94.4,124.8,94.6,123.5,94.6,121.4z"/>
	<path class="st0" d="M136.5,85.9l-3.4,32c-0.5,5-1.1,8.6-1.7,10.6c-0.6,2-1.8,3.5-3.6,4.4c-1.8,0.9-4.7,1.3-8.7,1.3h-7.3v-6.2h0.7
		c1.7,0,2.7-0.1,3.1-0.4c0.4-0.3,0.6-0.7,0.6-1.2c0,0-0.2-1.4-0.7-4.1l-6.6-36.3h10.9l4,30l1.9-30H136.5z"/>
	<path class="st0" d="M174.8,142.4h-8.7v-8.3h-20.3v8.3h-8.6v-18.4h2.6c1.4-3.9,2.5-9.1,3.3-15.6c0.9-6.4,1.3-13.5,1.3-21.1v-1.5
		h27.8V124h2.6V142.4z M159.7,124V95.4H156v0.4c0,9.2-1,18.6-3,28.2H159.7z"/>
	<path class="st0" d="M206.7,134.1h-10.5v-21.9l-6.5,21.9h-11V85.9h10.5v21.8l7-21.8h10.5V134.1z"/>
	<path class="st0" d="M240.6,85.9v48.2H228v-20.3h-3.8v20.3h-12.5V85.9h12.5v17.2h3.8V85.9H240.6z"/>
	<path class="st0" d="M274.3,114.1c0,4.8-0.1,8.3-0.3,10.3c-0.2,2-0.9,3.9-2.1,5.5c-1.2,1.7-2.8,2.9-4.9,3.8c-2,0.9-4.4,1.3-7.1,1.3
		c-2.6,0-4.9-0.4-7-1.3c-2.1-0.8-3.7-2.1-5-3.8c-1.3-1.7-2-3.5-2.2-5.5c-0.2-2-0.4-5.5-0.4-10.4v-8.2c0-4.8,0.1-8.3,0.3-10.3
		c0.2-2,0.9-3.9,2.1-5.5c1.2-1.7,2.8-2.9,4.9-3.8c2-0.9,4.4-1.3,7.1-1.3c2.6,0,4.9,0.4,7,1.3c2.1,0.8,3.7,2.1,5,3.8
		c1.3,1.7,2,3.5,2.2,5.5c0.2,2,0.4,5.5,0.4,10.4V114.1z M261.7,98.3c0-2.2-0.1-3.7-0.4-4.3c-0.2-0.6-0.8-0.9-1.5-0.9
		c-0.7,0-1.2,0.3-1.5,0.8c-0.3,0.5-0.5,2-0.5,4.5v22.5c0,2.8,0.1,4.5,0.3,5.2c0.2,0.7,0.8,1,1.6,1c0.9,0,1.4-0.4,1.6-1.1
		c0.2-0.8,0.4-2.6,0.4-5.4V98.3z"/>
	<path class="st0" d="M278.9,85.9h12.6l0.1,20.4c2.4-0.1,3.6-1.4,3.7-3.9l0.2-9.4c0.1-3.5,0.8-5.8,2-7h11.6
		c-1.1,1.2-1.7,3.6-1.7,7.3l0.1,8.3c0,5-2.8,7.9-8.5,8.5c5.7,0.7,8.5,3.6,8.5,8.7l-0.1,7.7c0,3.7,0.5,6.3,1.7,7.8h-11.6
		c-1.4-1.2-2-3.6-2-7v-9.4c0-1.2-0.4-2.1-1.1-2.9c-0.7-0.7-1.7-1.1-2.8-1.1l-0.1,20.4h-12.6V85.9z"/>
</g>
</svg>
