<?xml version="1.0" encoding="UTF-8"?>
<!DOCTYPE svg PUBLIC "-//W3C//DTD SVG 1.1//EN" "http://www.w3.org/Graphics/SVG/1.1/DTD/svg11.dtd">
<!-- Creator: CorelDRAW X7 -->
<svg xmlns="http://www.w3.org/2000/svg" xml:space="preserve" width="535px" height="399px" version="1.1" shape-rendering="geometricPrecision" text-rendering="geometricPrecision" image-rendering="optimizeQuality" fill-rule="evenodd" clip-rule="evenodd"
viewBox="0 0 316 236"
 xmlns:xlink="http://www.w3.org/1999/xlink">
 <g id="Слой_x0020_1">
  <metadata id="CorelCorpID_0Corel-Layer"/>
  <path fill="#2D2556" fill-rule="nonzero" d="M7 42l-7 0 0 -42 21 0 0 42 -7 0 0 -36 -7 0 0 36zm28 -42c3,0 6,1 7,3 2,2 3,4 3,8l0 5c0,3 -1,6 -3,8 -1,1 -4,2 -7,2l-3 0 0 16 -7 0 0 -42 10 0zm-3 6l0 14 3 0c1,0 2,0 2,0 1,-1 1,-2 1,-4l0 -6c0,-1 0,-2 -1,-3 0,0 -1,-1 -2,-1l-3 0zm22 36l-7 0 0 -42 6 0 0 25 7 -25 8 0 0 42 -6 0 0 -30 -8 30zm40 -31c0,-2 0,-3 -1,-4 0,-1 -1,-1 -2,-1 -1,0 -2,0 -3,1 0,0 0,1 0,3l0 4 -7 0 0 -4c0,-3 1,-6 3,-7 1,-2 4,-3 7,-3 3,0 6,1 7,3 2,1 3,4 3,7l0 1c0,5 -2,8 -5,9 2,1 3,2 4,3 0,2 1,4 1,6l0 3c0,3 -1,6 -3,8 -1,1 -4,2 -7,2 -3,0 -6,-1 -7,-2 -2,-2 -3,-5 -3,-8l0 -5 7 0 0 5c0,2 0,3 0,3 1,1 2,1 3,1 1,0 2,0 2,-1 1,0 1,-1 1,-3l0 -4c0,-1 0,-3 -1,-4 0,0 -1,-1 -3,-1l-1 0 0 -6 1 0c2,0 3,0 3,-1 1,0 1,-1 1,-3l0 -2zm32 31l-7 0 -1 -8 -8 0 -1 8 -6 0 7 -42 9 0 7 42zm-15 -13l6 0 -3 -21 -3 21zm32 1l4 -30 9 0 0 42 -6 0 0 -30 -4 30 -7 0 -4 -29 0 29 -6 0 0 -42 9 0 5 30zm24 2c0,2 0,3 1,3 0,1 1,1 2,1 1,0 2,0 3,-1 0,0 1,-1 1,-3l0 -22c0,-2 -1,-3 -1,-3 -1,-1 -2,-1 -3,-1 -1,0 -2,0 -2,1 -1,0 -1,1 -1,3l0 22zm-7 -22c0,-3 1,-6 3,-7 2,-2 4,-3 7,-3 3,0 6,1 8,3 1,1 2,4 2,7l0 22c0,3 -1,6 -2,8 -2,1 -5,2 -8,2 -3,0 -5,-1 -7,-2 -2,-2 -3,-5 -3,-8l0 -22zm34 -10c3,0 6,1 7,3 2,1 3,4 3,7l0 1c0,3 -1,4 -1,6 -1,1 -2,2 -4,3 2,0 3,2 4,3 1,2 1,3 1,6l0 3c0,3 -1,6 -2,7 -2,2 -4,3 -8,3l-10 0 0 -42 10 0zm-3 23l0 13 3 0c2,0 2,0 3,-1 0,-1 1,-2 1,-3l0 -4c0,-2 -1,-3 -1,-4 -1,0 -2,-1 -3,-1l-3 0zm0 -17l0 11 2 0c1,0 2,0 3,-1 1,0 1,-1 1,-3l0 -2c0,-2 0,-3 -1,-4 0,0 -1,-1 -2,-1l-3 0zm35 0l-7 0 0 26c0,2 0,3 -1,5 0,1 -1,2 -2,3 -1,1 -2,1 -3,1 -1,1 -2,1 -4,1 0,0 -1,0 -1,0 -1,0 -1,0 -2,0l0 -6c1,0 1,0 1,0 1,0 1,0 2,0 1,0 1,0 2,-1 1,0 1,-1 1,-3l0 -32 21 0 0 42 -7 0 0 -36zm18 12l9 0 0 6 -9 0 0 12 11 0 0 6 -17 0 0 -42 17 0 0 6 -11 0 0 12zm22 24l-7 0 0 -42 7 0 0 18 7 0 0 -18 7 0 0 42 -7 0 0 -18 -7 0 0 18zm25 0l-7 0 0 -42 7 0 0 18 7 0 0 -18 7 0 0 42 -7 0 0 -18 -7 0 0 18zm19 -42l6 0 0 42 -6 0 0 -42zm-242 75c0,-2 0,-3 -1,-4 0,0 -1,-1 -2,-1 -1,0 -2,1 -2,1 -1,1 -1,2 -1,4l0 4 -6 0 0 -4c0,-3 0,-6 2,-8 2,-2 4,-2 7,-2 3,0 6,0 7,2 2,2 3,5 3,8l0 1c0,4 -2,7 -5,9 2,0 3,1 4,3 1,1 1,3 1,5l0 3c0,4 -1,6 -3,8 -1,2 -4,3 -7,3 -3,0 -5,-1 -7,-3 -2,-2 -2,-4 -2,-8l0 -5 6 0 0 6c0,1 0,2 1,3 0,1 1,1 2,1 1,0 2,0 2,-1 1,-1 1,-2 1,-4l0 -3c0,-2 0,-3 -1,-4 0,-1 -1,-1 -3,-1l-1 0 0 -6 1 0c2,0 3,0 3,-1 1,-1 1,-2 1,-4l0 -2zm32 31l-7 0 -1 -7 -8 0 -1 7 -6 0 7 -41 9 0 7 41zm-15 -13l6 0 -3 -21 -3 21zm28 -28c3,0 5,1 7,3 1,1 2,4 2,7l0 6c0,3 -1,6 -2,7 -2,2 -4,3 -7,3l-4 0 0 15 -6 0 0 -41 10 0zm-4 6l0 14 4 0c1,0 1,0 2,-1 0,0 1,-1 1,-3l0 -6c0,-2 -1,-3 -1,-3 -1,-1 -1,-1 -2,-1l-4 0zm37 35l-6 0 -2 -7 -7 0 -2 7 -6 0 7 -41 10 0 6 41zm-15 -13l7 0 -4 -21 -3 21zm30 -18c0,-2 0,-3 0,-4 -1,0 -2,-1 -3,-1 -1,0 -2,1 -2,1 -1,1 -1,2 -1,4l0 4 -6 0 0 -4c0,-3 0,-6 2,-8 2,-2 4,-2 7,-2 3,0 6,0 7,2 2,2 3,5 3,8l0 1c0,4 -2,7 -5,9 2,0 3,1 4,3 1,1 1,3 1,5l0 3c0,4 -1,6 -3,8 -1,2 -4,3 -7,3 -3,0 -5,-1 -7,-3 -2,-2 -2,-4 -2,-8l0 -5 6 0 0 6c0,1 0,2 1,3 0,1 1,1 2,1 1,0 2,0 3,-1 0,-1 0,-2 0,-4l0 -3c0,-2 0,-3 -1,-4 0,-1 -1,-1 -3,-1l-1 0 0 -6 2 0c1,0 2,0 2,-1 1,-1 1,-2 1,-4l0 -2zm29 8l12 0 0 6 -12 0 0 -6zm35 -18c4,0 6,1 8,2 1,2 2,4 2,8l0 1c0,2 0,4 -1,5 -1,2 -2,3 -3,3 2,1 3,2 4,4 0,1 1,3 1,5l0 4c0,3 -1,5 -3,7 -2,2 -4,2 -7,2l-10 0 0 -41 9 0zm-3 23l0 12 4 0c1,0 2,0 2,0 1,-1 1,-2 1,-4l0 -3c0,-2 0,-3 -1,-4 -1,-1 -2,-1 -3,-1l-3 0zm0 -17l0 11 3 0c1,0 2,0 2,-1 1,-1 1,-2 1,-4l0 -2c0,-1 0,-2 0,-3 -1,-1 -2,-1 -3,-1l-3 0zm24 35l-7 0 0 -41 6 0 0 25 7 -25 8 0 0 41 -6 0 0 -30 -8 30zm-220 34c0,-2 0,-3 -1,-4 0,-1 -1,-1 -2,-1 -1,0 -2,0 -3,1 0,1 -1,2 -1,3l0 5 -6 0 0 -5c0,-3 1,-5 3,-7 1,-2 4,-3 7,-3 3,0 6,1 7,3 2,2 3,4 3,7l0 2c0,4 -2,7 -5,8 2,1 3,2 4,3 0,2 1,4 1,6l0 3c0,3 -1,6 -3,8 -1,2 -4,2 -7,2 -3,0 -6,0 -7,-2 -2,-2 -3,-5 -3,-8l0 -5 6 0 0 5c0,2 1,3 1,4 1,0 2,1 3,1 1,0 2,-1 2,-1 1,-1 1,-2 1,-4l0 -3c0,-2 0,-4 -1,-4 -1,-1 -2,-2 -3,-2l-1 0 0 -6 1 0c1,0 2,0 3,-1 1,0 1,-1 1,-3l0 -2zm32 31l-7 0 -1 -8 -8 0 -1 8 -6 0 7 -41 9 0 7 41zm-15 -13l6 0 -3 -21 -3 21zm24 3c0,2 0,3 1,4 0,0 1,1 2,1 1,0 2,-1 2,-1 1,-1 1,-2 1,-4l0 -22c0,-1 0,-2 -1,-3 0,-1 -1,-1 -2,-1 -1,0 -2,0 -2,1 -1,1 -1,2 -1,3l0 22zm-7 -22c0,-3 1,-5 3,-7 1,-2 4,-3 7,-3 3,0 6,1 7,3 2,2 3,4 3,7l0 22c0,3 -1,6 -3,8 -1,2 -4,2 -7,2 -3,0 -6,0 -7,-2 -2,-2 -3,-5 -3,-8l0 -22zm24 -9l6 0 0 35 6 0 0 -35 6 0 0 35 6 0 0 -35 6 0 0 35 3 0 0 11 -6 0 0 -5 -27 0 0 -41zm57 41l-7 0 -1 -8 -8 0 -1 8 -6 0 7 -41 9 0 7 41zm-15 -13l6 0 -3 -21 -3 21zm15 7c1,0 1,0 2,0 0,0 0,0 1,0 1,0 2,0 2,-1 1,0 1,-1 1,-3l0 -31 21 0 0 35 3 0 0 11 -6 0 0 -5 -17 0 0 5 -7 0 0 -11zm13 -4c0,1 0,3 -1,4l8 0 0 -30 -7 0 0 26zm25 10l-7 0 9 -23 -9 -18 7 0 8 17 0 -17 7 0 0 17 8 -17 7 0 -9 18 9 23 -7 0 -6 -17 -2 4 0 13 -7 0 0 -13 -2 -4 -6 17zm34 -6c1,0 1,0 1,0 1,0 1,0 2,0 0,0 1,0 1,0 0,0 1,0 1,-1 1,0 1,-1 1,-1 0,-1 0,-1 0,-2l-9 -31 6 0 7 24 6 -24 7 0 -9 30c0,3 -1,5 -2,7 -1,1 -2,2 -2,3 -1,0 -2,1 -3,1 -1,0 -2,0 -4,0 0,0 -1,0 -1,0 -1,0 -1,0 -2,0l0 -6zm33 6l-7 0 0 -41 6 0 0 24 6 -24 8 0 0 41 -5 0 0 -30 -8 30zm10 -49l0 5 -14 0 0 -5 14 0zm6 8l21 0 0 5 -7 0 0 36 -7 0 0 -36 -7 0 0 -5zm30 17l9 0 0 6 -9 0 0 12 11 0 0 6 -18 0 0 -41 18 0 0 5 -11 0 0 12zm-188 57c0,-2 -1,-3 -1,-3 -1,-1 -2,-1 -3,-1 -1,0 -2,0 -2,0 -1,1 -1,2 -1,4l0 4 -6 0 0 -4c0,-3 1,-6 2,-8 2,-1 4,-2 7,-2 4,0 6,1 8,2 1,2 2,5 2,8l0 1c0,5 -1,7 -4,9 1,0 2,1 3,3 1,1 1,3 1,5l0 4c0,3 -1,5 -2,7 -2,2 -4,3 -8,3 -3,0 -5,-1 -7,-3 -1,-2 -2,-4 -2,-7l0 -6 6 0 0 6c0,1 0,3 1,3 0,1 1,1 2,1 1,0 2,0 3,-1 0,-1 1,-2 1,-4l0 -3c0,-2 -1,-3 -1,-4 -1,-1 -2,-1 -4,-1l-1 0 0 -6 2 0c1,0 2,0 3,-1 0,-1 1,-2 1,-3l0 -3zm31 31l-6 0 -1 -7 -8 0 -2 7 -6 0 7 -41 10 0 6 41zm-15 -13l7 0 -3 -21 -4 21zm28 -28c3,0 6,1 7,2 2,2 3,4 3,8l0 1c0,2 -1,4 -1,5 -1,2 -2,3 -4,3 2,1 3,2 4,4 1,1 1,3 1,5l0 4c0,3 -1,5 -2,7 -2,2 -4,2 -8,2l-10 0 0 -41 10 0zm-3 23l0 13 3 0c2,0 2,-1 3,-1 1,-1 1,-2 1,-4l0 -3c0,-2 -1,-3 -1,-4 -1,-1 -2,-1 -3,-1l-3 0zm0 -17l0 11 2 0c1,0 2,0 3,-1 1,-1 1,-2 1,-3l0 -3c0,-1 0,-2 -1,-3 0,-1 -1,-1 -2,-1l-3 0zm15 -6l20 0 0 6 -6 0 0 35 -7 0 0 -35 -7 0 0 -6zm33 0c3,0 6,1 7,3 2,1 3,4 3,7l0 6c0,3 -1,6 -3,7 -1,2 -4,3 -7,3l-3 0 0 15 -7 0 0 -41 10 0zm-3 6l0 14 3 0c1,0 2,0 2,-1 1,0 1,-1 1,-3l0 -6c0,-2 0,-3 -1,-3 0,-1 -1,-1 -2,-1l-3 0zm37 35l-7 0 -1 -7 -8 0 -1 7 -6 0 6 -41 10 0 7 41zm-15 -13l6 0 -3 -21 -3 21z"/>
 </g>
</svg>
