<?xml version="1.0" encoding="UTF-8"?>
<!DOCTYPE svg PUBLIC "-//W3C//DTD SVG 1.1//EN" "http://www.w3.org/Graphics/SVG/1.1/DTD/svg11.dtd">
<!-- Creator: CorelDRAW X7 -->
<svg xmlns="http://www.w3.org/2000/svg" xml:space="preserve" width="397px" height="289px" version="1.1" shape-rendering="geometricPrecision" text-rendering="geometricPrecision" image-rendering="optimizeQuality" fill-rule="evenodd" clip-rule="evenodd"
viewBox="0 0 147 107"
 xmlns:xlink="http://www.w3.org/1999/xlink">
 <g id="Слой_x0020_1">
  <metadata id="CorelCorpID_0Corel-Layer"/>
  <path fill="#E31E24" fill-rule="nonzero" d="M8 14l9 0 0 5 -9 0 0 -5zm11 14c0,0 0,0 1,0 0,0 0,0 1,0 0,0 1,0 2,0 0,-1 0,-2 0,-3l0 -25 17 0 0 28 2 0 0 8 -5 0 0 -3 -13 0 0 3 -5 0 0 -8zm10 -3c0,1 -1,2 -1,3l6 0 0 -23 -5 0 0 20zm20 0c0,1 0,2 1,3 0,0 1,0 1,0 1,0 2,0 2,0 1,-1 1,-2 1,-3l0 -17c0,-1 0,-2 -1,-3 0,0 -1,0 -2,0 0,0 -1,0 -1,0 -1,1 -1,2 -1,3l0 17zm-5 -17c0,-2 0,-4 2,-6 1,-1 3,-2 5,-2 3,0 5,1 6,2 2,2 2,4 2,6l0 17c0,3 0,5 -2,6 -1,1 -3,2 -6,2 -2,0 -4,-1 -5,-2 -2,-1 -2,-3 -2,-6l0 -17zm35 0c0,-1 0,-2 0,-3 -1,0 -1,0 -2,0 -1,0 -2,0 -2,0 -1,1 -1,2 -1,3l0 2 -5 0 0 -2c0,-2 1,-4 2,-6 2,-1 3,-2 6,-2 2,0 4,1 6,2 1,2 1,4 1,6l0 1c0,3 -1,6 -3,7 1,0 2,1 3,2 0,1 0,3 0,4l0 3c0,3 0,5 -1,6 -2,1 -4,2 -6,2 -3,0 -4,-1 -6,-2 -1,-1 -2,-3 -2,-6l0 -3 5 0 0 3c0,1 0,2 1,3 0,0 1,0 2,0 1,0 1,0 2,0 0,-1 0,-2 0,-3l0 -3c0,-1 0,-2 0,-3 -1,-1 -2,-1 -3,-1l-2 0 0 -4 2 0c1,0 2,-1 3,-1 0,-1 0,-2 0,-3l0 -2zm24 17c0,3 -1,5 -2,6 -1,1 -3,2 -6,2 -2,0 -4,-1 -6,-2 -1,-1 -2,-3 -2,-6l0 -3c0,-1 0,-3 1,-4 0,-1 1,-2 2,-2 -2,-1 -3,-4 -3,-7l0 -1c0,-2 1,-4 2,-6 2,-1 4,-2 6,-2 3,0 5,1 6,2 1,2 2,4 2,6l0 1c0,3 -1,5 -3,7 1,0 2,1 2,2 1,1 1,3 1,4l0 3zm-11 0c0,1 1,2 1,3 1,0 1,0 2,0 1,0 2,0 2,0 1,-1 1,-2 1,-3l0 -3c0,-1 0,-2 -1,-3 0,-1 -1,-1 -2,-1 -1,0 -1,0 -2,1 0,1 -1,2 -1,3l0 3zm0 -15c0,1 1,2 1,3 1,0 1,1 2,1 1,0 2,-1 2,-1 1,-1 1,-2 1,-3l0 -2c0,-1 0,-2 -1,-3 0,0 -1,0 -2,0 -1,0 -1,0 -2,0 0,1 -1,2 -1,3l0 2zm24 6c0,2 1,2 2,2 0,0 1,0 1,0 0,-1 1,-1 1,-2l0 -11c0,-1 -1,-1 -1,-1 0,-1 -1,-1 -1,-1 -1,0 -2,1 -2,2l0 11zm-3 -11c0,-1 0,-3 1,-4 1,0 2,-1 4,-1 2,0 3,1 4,1 0,1 1,3 1,4l0 11c0,2 -1,3 -1,4 -1,1 -2,1 -4,1 -2,0 -3,0 -4,-1 -1,-1 -1,-2 -1,-4l0 -11zm18 -5l3 0 -13 33 -3 0 13 -33zm1 28c0,1 1,2 2,2 1,0 1,0 1,0 1,-1 1,-1 1,-2l0 -11c0,-1 0,-1 -1,-1 0,-1 0,-1 -1,-1 -1,0 -2,1 -2,2l0 11zm-3 -11c0,-1 1,-3 1,-4 1,0 2,-1 4,-1 2,0 3,1 4,1 0,1 1,3 1,4l0 11c0,2 -1,3 -1,4 -1,1 -2,1 -4,1 -2,0 -3,0 -4,-1 0,-1 -1,-2 -1,-4l0 -11z"/>
  <path fill="#337AB7" fill-rule="nonzero" d="M21 68l-3 0 0 -22 3 0 0 9 5 0 0 -9 3 0 0 22 -3 0 0 -9 -5 0 0 9zm22 0l-3 0 -1 -4 -4 0 -1 4 -3 0 4 -22 5 0 3 22zm-8 -7l4 0 -2 -11 -2 11zm21 -15c2,0 3,0 4,1 1,1 1,2 1,4l0 1c0,1 0,2 -1,3 0,0 -1,1 -1,1 1,1 1,1 2,2 0,1 0,2 0,3l0 2c0,2 0,3 -1,4 -1,1 -2,1 -4,1l-6 0 0 -22 6 0zm-2 12l0 7 2 0c0,0 1,0 1,0 1,-1 1,-1 1,-2l0 -2c0,-1 0,-2 -1,-2 0,-1 -1,-1 -2,-1l-1 0zm0 -9l0 6 1 0c1,0 1,0 2,-1 0,0 0,-1 0,-2l0 -1c0,-1 0,-1 0,-2 0,0 -1,0 -1,0l-2 0zm9 -3l4 0 0 22 -4 0 0 -22zm11 13l-1 2 0 7 -3 0 0 -22 3 0 0 10 5 -10 4 0 -5 10 5 12 -4 0 -4 -9zm13 4c0,1 0,2 0,2 0,0 1,0 1,0 1,0 1,0 2,0 0,0 0,-1 0,-2l0 -12c0,-1 0,-2 0,-2 -1,0 -1,0 -2,0 0,0 -1,0 -1,0 0,0 0,1 0,2l0 12zm-4 -12c0,-2 0,-3 1,-4 1,-1 3,-2 4,-2 2,0 4,1 4,2 1,1 2,2 2,4l0 12c0,2 -1,3 -2,4 0,1 -2,2 -4,2 -1,0 -3,-1 -4,-2 -1,-1 -1,-2 -1,-4l0 -12zm17 17l-4 0 0 -22 4 0 0 9 4 0 0 -9 4 0 0 22 -4 0 0 -9 -4 0 0 9zm14 0l-4 0 0 -22 4 0 0 9 4 0 0 -9 3 0 0 22 -3 0 0 -9 -4 0 0 9zm10 -22l4 0 0 22 -4 0 0 -22zm-119 49l-1 2 0 7 -4 0 0 -23 4 0 0 10 4 -10 4 0 -5 11 5 12 -4 0 -3 -9zm12 4c0,1 0,1 0,2 1,0 1,0 2,0 0,0 1,0 1,0 0,-1 1,-1 1,-2l0 -12c0,-1 -1,-2 -1,-2 0,-1 -1,-1 -1,-1 -1,0 -1,0 -2,1 0,0 0,1 0,2l0 12zm-4 -12c0,-2 1,-3 2,-4 1,-1 2,-2 4,-2 1,0 3,1 4,2 1,1 1,2 1,4l0 12c0,2 0,3 -1,4 -1,1 -3,2 -4,2 -2,0 -3,-1 -4,-2 -1,-1 -2,-2 -2,-4l0 -12zm17 17l-4 0 0 -23 4 0 0 10 4 0 0 -10 4 0 0 23 -4 0 0 -10 -4 0 0 10zm21 -8l0 3c0,2 -1,3 -1,4 -1,1 -3,2 -5,2 -1,0 -3,-1 -4,-2 0,-1 -1,-2 -1,-4l0 -12c0,-2 1,-3 1,-4 1,-1 3,-2 4,-2 2,0 4,1 5,2 0,1 1,2 1,4l0 2 -4 0 0 -2c0,-1 0,-2 0,-2 0,-1 -1,-1 -1,-1 -1,0 -1,0 -2,1 0,0 0,1 0,2l0 12c0,1 0,1 0,2 1,0 1,0 2,0 0,0 1,0 1,0 0,-1 0,-1 0,-2l0 -3 4 0zm1 -15l11 0 0 4 -3 0 0 19 -4 0 0 -19 -4 0 0 -4zm18 0c2,0 3,1 4,2 1,1 2,2 2,4l0 3c0,2 -1,3 -2,4 -1,1 -2,2 -4,2l-1 0 0 8 -4 0 0 -23 5 0zm-1 4l0 7 1 0c1,0 1,0 2,0 0,0 0,-1 0,-2l0 -3c0,-1 0,-2 0,-2 -1,0 -1,0 -2,0l-1 0zm9 16c0,0 1,0 1,0 0,0 0,0 0,0 1,0 1,0 1,0 1,0 1,0 1,0 0,-1 0,-1 0,-1 0,-1 1,-1 1,-1l-6 -18 4 0 4 14 3 -14 4 0 -5 17c0,2 -1,3 -1,4 -1,1 -1,1 -2,2 0,0 -1,0 -1,0 -1,0 -1,0 -2,0 0,0 -1,0 -1,0 0,0 0,0 -1,0l0 -3zm19 -6l-1 2 0 7 -4 0 0 -23 4 0 0 10 5 -10 3 0 -5 11 5 12 -3 0 -4 -9zm13 6l4 0 0 -20 3 0 0 20 2 0 0 6 -4 0 0 -3 -9 0 0 -23 4 0 0 20zm10 -20l4 0 0 23 -4 0 0 -23zm8 0l3 0 0 23 -3 0 0 -23zm1 -4l0 3 -4 0 0 -3 4 0zm5 0l0 3 -3 0 0 -3 3 0zm6 10l-1 -6 3 0 -1 6 5 -3 1 3 -6 1 4 4 -2 2 -3 -5 -2 5 -2 -2 3 -4 -5 -1 1 -3 5 3z"/>
 </g>
</svg>
