<?xml version="1.0" encoding="utf-8"?>
<!-- Generator: Adobe Illustrator 24.3.0, SVG Export Plug-In . SVG Version: 6.00 Build 0)  -->
<svg version="1.1"
	 id="Layer_1" text-rendering="geometricPrecision" shape-rendering="geometricPrecision" image-rendering="optimizeQuality"
	 xmlns="http://www.w3.org/2000/svg" xmlns:xlink="http://www.w3.org/1999/xlink" x="0px" y="0px" viewBox="0 0 412 229"
	 style="enable-background:new 0 0 412 229;" xml:space="preserve">
<style type="text/css">
	.st0{fill:#E31E24;}
	.st1{fill:#337AB7;}
</style>
<path class="st0" d="M28.5,38.6h25.7v12.9H28.5V38.6z M59.3,77.2c0,0,0,0,2.6,0l0,0c2.6,0,5.1-2.6,7.7-2.6c0,0,2.6-2.6,2.6-7.7V0
	h41.2v77.2h7.7v20.6h-12.9V87.5h-36v10.3H59.3V77.2z M85.1,66.9c0,2.6,0,7.7-2.6,10.3h18V12.9H85.1V66.9z M139.1,69.5
	c0,2.6,0,5.1,2.6,5.1c0,2.6,2.6,2.6,5.1,2.6c2.6,0,2.6,0,5.1-2.6c0,0,2.6-2.6,2.6-5.1V20.6c0-2.6-2.6-5.1-2.6-5.1
	c-2.6-2.6-2.6-2.6-5.1-2.6c-2.6,0-5.1,0-5.1,2.6c-2.6,0-2.6,2.6-2.6,5.1V69.5z M126.2,23.2c0-7.7,2.6-12.9,5.1-18
	C134,2.6,139.1,0,146.8,0s12.9,2.6,15.4,5.1c2.6,5.1,5.1,10.3,5.1,18v43.7c0,7.7-2.6,12.9-5.1,18c-2.6,2.6-7.7,5.1-15.4,5.1
	s-12.9-2.6-15.4-5.1c-2.6-5.1-5.1-10.3-5.1-18V23.2z M203.4,12.9c2.6,0,5.1,0,7.7-2.6c2.6,0,2.6,0,5.1-2.6c0,0,0,0,2.6-2.6
	c0,0,0-2.6,0-5.1h10.3v87.5h-15.4V20.6h-10.3V12.9z M257.5,59.2v10.3c0,2.6,0,5.1,2.6,5.1c0,2.6,2.6,2.6,5.1,2.6s2.6,0,5.1-2.6
	c0,0,2.6-2.6,2.6-5.1V48.9c0-2.6-2.6-5.1-2.6-5.1c-2.6-2.6-2.6-2.6-5.1-2.6s-5.1,0-5.1,2.6c-2.6,0-2.6,2.6-2.6,5.1v2.6h-12.9
	L247.2,0h36v12.9H260l-2.6,20.6c2.6-2.6,7.7-5.1,12.9-5.1s10.3,2.6,10.3,5.1c2.6,2.6,5.1,7.7,5.1,15.4v18c0,7.7-2.6,12.9-5.1,18
	c-2.6,2.6-7.7,5.1-15.4,5.1c-7.7,0-12.9-2.6-15.4-5.1c-2.6-5.1-5.1-10.3-5.1-18v-7.7H257.5z M321.8,43.7c0,2.6,2.6,5.1,5.1,5.1h2.6
	c2.6-2.6,2.6-2.6,2.6-5.1V12.9c0,0,0-2.6-2.6-2.6c0-2.6-2.6-2.6-2.6-2.6c-2.6,0-5.1,2.6-5.1,5.1V43.7z M314.1,15.4
	c0-5.1,0-10.3,2.6-10.3c2.6-2.6,5.1-5.1,10.3-5.1c5.1,0,7.7,2.6,10.3,5.1c2.6,0,2.6,5.1,2.6,10.3v28.3c0,5.1,0,7.7-2.6,10.3
	c-2.6,2.6-5.1,2.6-10.3,2.6c-5.1,0-7.7,0-10.3-2.6s-2.6-5.1-2.6-10.3V15.4z M360.4,0h7.7l-33.4,87.5h-7.7L360.4,0z M365.5,77.2
	c0,2.6,2.6,5.1,5.1,5.1c0,0,2.6,0,2.6-2.6l2.6-2.6V46.3c0-2.6-2.6-2.6-2.6-5.1h-2.6c-2.6,0-5.1,2.6-5.1,5.1V77.2z M357.8,46.3
	c0-5.1,0-7.7,2.6-10.3c2.6-2.6,5.1-2.6,10.3-2.6c2.6,0,7.7,0,10.3,2.6c0,2.6,2.6,5.1,2.6,10.3v28.3c0,5.1-2.6,7.7-2.6,10.3
	c-2.6,2.6-7.7,5.1-10.3,5.1c-5.1,0-7.7-2.6-10.3-5.1c-2.6-2.6-2.6-5.1-2.6-10.3V46.3z"/>
<g>
	<path class="st1" d="M52.3,104.8v43.4H41V130h-3.4v18.2H26.3v-43.4h11.3v15.5H41v-15.5H52.3z"/>
	<path class="st1" d="M76.4,104.8l6.5,43.4H71.3l-0.6-7.8h-4l-0.7,7.8H54.3l5.8-43.4H76.4z M70.4,132.8c-0.6-4.9-1.1-11-1.7-18.2
		c-1.2,8.3-1.9,14.4-2.2,18.2H70.4z"/>
	<path class="st1" d="M94.4,104.8h11.3c3.6,0,6.3,0.3,8.1,0.8c1.8,0.6,3.3,1.7,4.4,3.4c1.1,1.7,1.7,4.4,1.7,8.2
		c0,2.5-0.4,4.3-1.2,5.3c-0.8,1-2.4,1.8-4.7,2.3c2.6,0.6,4.4,1.6,5.3,2.9c0.9,1.4,1.4,3.5,1.4,6.3v4c0,2.9-0.3,5.1-1,6.5
		c-0.7,1.4-1.7,2.4-3.2,2.9c-1.5,0.5-4.5,0.8-9,0.8H94.4V104.8z M105.7,112.3v9.7c0.5,0,0.9,0,1.1,0c1.1,0,1.8-0.3,2.1-0.8
		c0.3-0.5,0.5-2.1,0.5-4.7c0-1.4-0.1-2.3-0.4-2.9c-0.3-0.5-0.6-0.9-1-1C107.7,112.4,106.9,112.3,105.7,112.3z M105.7,128.7v12.2
		c1.6-0.1,2.6-0.3,3-0.8c0.4-0.4,0.7-1.5,0.7-3.3v-4.1c0-1.9-0.2-3-0.6-3.4C108.4,129,107.4,128.7,105.7,128.7z"/>
	<path class="st1" d="M147.7,104.8l-4,19.2l6,24.2h-10.5c-1.3-4.3-2.4-9.6-3.4-15.8c-0.3,2.8-0.7,5.7-1.2,8.7l-1.1,7.1h-11l4.1-24.2
		l-4.1-19.2h10.9c0.2,1.2,0.6,3.2,1.2,6c0.5,2.1,0.9,4.1,1.2,5.9l2.4-11.9H147.7z"/>
	<path class="st1" d="M162.6,104.8v43.4h-11.3v-43.4H162.6z"/>
	<path class="st1" d="M199.4,155.8h-7.8v-7.5h-18.2v7.5h-7.8v-16.6h2.3c1.2-3.6,2.2-8.2,3-14c0.8-5.8,1.2-12.1,1.2-19v-1.3h25.1
		v34.3h2.3V155.8z M185.8,139.2v-25.8h-3.4v0.3c0,8.3-0.9,16.8-2.7,25.4H185.8z"/>
	<path class="st1" d="M228.9,104.8v43.4h-11.3V130h-3.4v18.2h-11.3v-43.4h11.3v15.5h3.4v-15.5H228.9z"/>
	<path class="st1" d="M244.7,104.8v43.4h-11.3v-43.4H244.7z"/>
	<path class="st1" d="M291.2,155.8h-7.8v-7.5h-18.2v7.5h-7.8v-16.6h2.3c1.2-3.6,2.2-8.2,3-14c0.8-5.8,1.2-12.1,1.2-19v-1.3h25.1
		v34.3h2.3V155.8z M277.6,139.2v-25.8h-3.4v0.3c0,8.3-0.9,16.8-2.7,25.4H277.6z"/>
	<path class="st1" d="M294.7,104.8H306c3.6,0,6.3,0.3,8.1,0.8c1.8,0.6,3.3,1.7,4.4,3.4c1.1,1.7,1.7,4.4,1.7,8.2
		c0,2.5-0.4,4.3-1.2,5.3s-2.4,1.8-4.7,2.3c2.6,0.6,4.4,1.6,5.3,2.9c0.9,1.4,1.4,3.5,1.4,6.3v4c0,2.9-0.3,5.1-1,6.5
		c-0.7,1.4-1.7,2.4-3.2,2.9c-1.5,0.5-4.5,0.8-9,0.8h-13.1V104.8z M306,112.3v9.7c0.5,0,0.9,0,1.1,0c1.1,0,1.8-0.3,2.1-0.8
		c0.3-0.5,0.5-2.1,0.5-4.7c0-1.4-0.1-2.3-0.4-2.9c-0.3-0.5-0.6-0.9-1-1C308,112.4,307.2,112.3,306,112.3z M306,128.7v12.2
		c1.6-0.1,2.6-0.3,3-0.8c0.4-0.4,0.7-1.5,0.7-3.3v-4.1c0-1.9-0.2-3-0.6-3.4C308.8,129,307.7,128.7,306,128.7z"/>
	<path class="st1" d="M325.1,104.8h18.8v8.7h-7.5v8.2h7.1v8.3h-7.1v9.6h8.3v8.7h-19.6V104.8z"/>
	<path class="st1" d="M347.9,104.8h11.4c3.1,0,5.4,0.2,7.1,0.7c1.7,0.5,2.9,1.2,3.7,2.1c0.8,0.9,1.4,2,1.7,3.3
		c0.3,1.3,0.4,3.3,0.4,6v3.8c0,2.8-0.3,4.8-0.9,6.1c-0.6,1.3-1.6,2.2-3.2,2.9c-1.5,0.7-3.5,1-6,1h-3v17.5h-11.3V104.8z M359.2,112.3
		v11.1c0.3,0,0.6,0,0.8,0c1,0,1.8-0.3,2.2-0.8c0.4-0.5,0.6-1.6,0.6-3.2v-3.6c0-1.5-0.2-2.4-0.7-2.9
		C361.6,112.5,360.7,112.3,359.2,112.3z"/>
	<path class="st1" d="M386.8,104.8v43.4h-11.3v-43.4H386.8z"/>
	<path class="st1" d="M91.9,221.7H84v-7.5H65.8v7.5H58v-16.6h2.3c1.2-3.6,2.2-8.2,3-14c0.8-5.8,1.2-12.1,1.2-19v-1.3h25.1v34.3h2.3
		V221.7z M78.2,205.1v-25.8h-3.4v0.3c0,8.3-0.9,16.8-2.7,25.4H78.2z"/>
	<path class="st1" d="M121.2,196.2c0,4.4-0.1,7.5-0.3,9.3c-0.2,1.8-0.9,3.5-1.9,5c-1.1,1.5-2.5,2.7-4.4,3.5c-1.8,0.8-4,1.2-6.4,1.2
		c-2.3,0-4.4-0.4-6.3-1.1c-1.9-0.8-3.3-1.9-4.5-3.4c-1.1-1.5-1.8-3.2-2-5c-0.2-1.8-0.3-4.9-0.3-9.4v-7.4c0-4.4,0.1-7.5,0.3-9.3
		c0.2-1.8,0.8-3.5,1.9-5c1.1-1.5,2.5-2.7,4.4-3.5c1.8-0.8,4-1.2,6.4-1.2c2.3,0,4.4,0.4,6.3,1.1c1.9,0.8,3.3,1.9,4.5,3.4
		c1.1,1.5,1.8,3.2,2,5c0.2,1.8,0.3,4.9,0.3,9.4V196.2z M109.9,181.9c0-2-0.1-3.3-0.3-3.9c-0.2-0.6-0.7-0.8-1.4-0.8
		c-0.6,0-1,0.2-1.4,0.7c-0.3,0.5-0.5,1.8-0.5,4v20.3c0,2.5,0.1,4.1,0.3,4.7c0.2,0.6,0.7,0.9,1.4,0.9c0.8,0,1.3-0.3,1.5-1
		c0.2-0.7,0.3-2.3,0.3-4.9V181.9z"/>
	<path class="st1" d="M135.1,170.7h11.3l0.1,18.4c2.1-0.1,3.2-1.2,3.3-3.5l0.2-8.5c0.1-3.1,0.7-5.2,1.8-6.3h10.4
		c-1,1.1-1.5,3.2-1.5,6.5l0.1,7.5c0,4.5-2.5,7.1-7.6,7.7c5.1,0.6,7.7,3.2,7.6,7.8l-0.1,6.9c0,3.3,0.5,5.6,1.5,7h-10.4
		c-1.2-1.1-1.8-3.2-1.8-6.3v-8.5c0-1.1-0.3-1.9-1-2.6c-0.7-0.7-1.5-1-2.5-1l-0.1,18.4h-11.3V170.7z"/>
	<path class="st1" d="M164.5,170.8h11.3c3.6,0,6.3,0.3,8.1,0.8c1.8,0.6,3.3,1.7,4.4,3.4c1.1,1.7,1.7,4.4,1.7,8.2
		c0,2.5-0.4,4.3-1.2,5.3c-0.8,1-2.4,1.8-4.7,2.3c2.6,0.6,4.4,1.6,5.3,2.9c0.9,1.4,1.4,3.5,1.4,6.3v4c0,2.9-0.3,5.1-1,6.5
		c-0.7,1.4-1.7,2.4-3.2,2.9c-1.5,0.5-4.5,0.8-9,0.8h-13.1V170.8z M175.8,178.2v9.7c0.5,0,0.9,0,1.1,0c1.1,0,1.8-0.3,2.1-0.8
		c0.3-0.5,0.5-2.1,0.5-4.7c0-1.4-0.1-2.3-0.4-2.9c-0.2-0.5-0.6-0.9-1-1C177.8,178.3,177,178.2,175.8,178.2z M175.8,194.6v12.2
		c1.6-0.1,2.6-0.3,3-0.8c0.4-0.4,0.7-1.5,0.7-3.3v-4.1c0-1.9-0.2-3-0.6-3.4C178.5,194.9,177.5,194.7,175.8,194.6z"/>
	<path class="st1" d="M214.4,170.8l6.5,43.4h-11.5l-0.6-7.8h-4l-0.7,7.8h-11.7l5.8-43.4H214.4z M208.4,198.7
		c-0.6-4.9-1.1-11-1.7-18.2c-1.2,8.3-1.9,14.4-2.2,18.2H208.4z"/>
	<path class="st1" d="M222.8,170.8h11.4c3.1,0,5.4,0.2,7.1,0.7c1.7,0.5,2.9,1.2,3.7,2.1c0.8,0.9,1.4,2,1.7,3.3
		c0.3,1.3,0.4,3.3,0.4,6v3.8c0,2.8-0.3,4.8-0.9,6.1c-0.6,1.3-1.6,2.2-3.2,2.9c-1.5,0.7-3.5,1-6,1h-3v17.5h-11.3V170.8z M234.1,178.2
		v11.1c0.3,0,0.6,0,0.8,0c1,0,1.8-0.3,2.2-0.8c0.4-0.5,0.6-1.6,0.6-3.2v-3.6c0-1.5-0.2-2.4-0.7-2.9
		C236.5,178.4,235.5,178.2,234.1,178.2z"/>
	<path class="st1" d="M273.1,170.8v8.7h-6.7v34.7h-11.3v-34.7h-6.7v-8.7H273.1z"/>
	<path class="st1" d="M300.9,214.2h-9.4v-19.8l-5.9,19.8h-9.9v-43.5h9.4v19.6l6.3-19.6h9.4V214.2z"/>
	<path class="st1" d="M305.4,170.8h11.4c3.1,0,5.4,0.2,7.1,0.7c1.7,0.5,2.9,1.2,3.7,2.1c0.8,0.9,1.4,2,1.7,3.3
		c0.3,1.3,0.4,3.3,0.4,6v3.8c0,2.8-0.3,4.8-0.9,6.1c-0.6,1.3-1.6,2.2-3.2,2.9c-1.5,0.7-3.5,1-6,1h-3v17.5h-11.3V170.8z M316.7,178.2
		v11.1c0.3,0,0.6,0,0.8,0c1,0,1.8-0.3,2.2-0.8c0.4-0.5,0.6-1.6,0.6-3.2v-3.6c0-1.5-0.2-2.4-0.7-2.9
		C319.1,178.4,318.2,178.2,316.7,178.2z"/>
	<path class="st1" d="M340.2,170.8v4.3l4-1.4l1.2,3.2l-4,1.7l2.5,3.5l-2.7,2l-2.7-3.6l-2.7,3.6l-2.8-2l2.5-3.7l-4-1.5l1.2-3.2
		l4.1,1.4v-4.3H340.2z"/>
</g>
</svg>
