<?xml version="1.0" encoding="UTF-8"?>
<!DOCTYPE svg PUBLIC "-//W3C//DTD SVG 1.1//EN" "http://www.w3.org/Graphics/SVG/1.1/DTD/svg11.dtd">
<!-- Creator: CorelDRAW X7 -->
<svg xmlns="http://www.w3.org/2000/svg" xml:space="preserve" width="412px" height="229px" version="1.1" shape-rendering="geometricPrecision" text-rendering="geometricPrecision" image-rendering="optimizeQuality" fill-rule="evenodd" clip-rule="evenodd"
viewBox="0 0 160 89"
 xmlns:xlink="http://www.w3.org/1999/xlink">
 <g id="Слой_x0020_1">
  <metadata id="CorelCorpID_0Corel-Layer"/>
  <path fill="#E31E24" fill-rule="nonzero" d="M11 15l10 0 0 5 -10 0 0 -5zm12 15c0,0 0,0 1,0 0,0 0,0 0,0 1,0 2,-1 3,-1 0,0 1,-1 1,-3l0 -26 16 0 0 30 3 0 0 8 -5 0 0 -4 -14 0 0 4 -5 0 0 -8zm10 -4c0,1 0,3 -1,4l7 0 0 -25 -6 0 0 21zm21 1c0,1 0,2 1,2 0,1 1,1 2,1 1,0 1,0 2,-1 0,0 1,-1 1,-2l0 -19c0,-1 -1,-2 -1,-2 -1,-1 -1,-1 -2,-1 -1,0 -2,0 -2,1 -1,0 -1,1 -1,2l0 19zm-5 -18c0,-3 1,-5 2,-7 1,-1 3,-2 6,-2 3,0 5,1 6,2 1,2 2,4 2,7l0 17c0,3 -1,5 -2,7 -1,1 -3,2 -6,2 -3,0 -5,-1 -6,-2 -1,-2 -2,-4 -2,-7l0 -17zm30 -4c1,0 2,0 3,-1 1,0 1,0 2,-1 0,0 0,0 1,-1 0,0 0,-1 0,-2l4 0 0 34 -6 0 0 -26 -4 0 0 -3zm21 18l0 4c0,1 0,2 1,2 0,1 1,1 2,1 1,0 1,0 2,-1 0,0 1,-1 1,-2l0 -8c0,-1 -1,-2 -1,-2 -1,-1 -1,-1 -2,-1 -1,0 -2,0 -2,1 -1,0 -1,1 -1,2l0 1 -5 0 1 -20 14 0 0 5 -9 0 -1 8c1,-1 3,-2 5,-2 2,0 4,1 4,2 1,1 2,3 2,6l0 7c0,3 -1,5 -2,7 -1,1 -3,2 -6,2 -3,0 -5,-1 -6,-2 -1,-2 -2,-4 -2,-7l0 -3 5 0zm25 -6c0,1 1,2 2,2 0,0 1,0 1,0 1,-1 1,-1 1,-2l0 -12c0,0 0,-1 -1,-1 0,-1 -1,-1 -1,-1 -1,0 -2,1 -2,2l0 12zm-3 -11c0,-2 0,-4 1,-4 1,-1 2,-2 4,-2 2,0 3,1 4,2 1,0 1,2 1,4l0 11c0,2 0,3 -1,4 -1,1 -2,1 -4,1 -2,0 -3,0 -4,-1 -1,-1 -1,-2 -1,-4l0 -11zm18 -6l3 0 -13 34 -3 0 13 -34zm2 30c0,1 1,2 2,2 0,0 1,0 1,-1 0,0 1,-1 1,-1l0 -12c0,-1 -1,-1 -1,-2 0,0 -1,0 -1,0 -1,0 -2,1 -2,2l0 12zm-3 -12c0,-2 0,-3 1,-4 1,-1 2,-1 4,-1 1,0 3,0 4,1 0,1 1,2 1,4l0 11c0,2 -1,3 -1,4 -1,1 -3,2 -4,2 -2,0 -3,-1 -4,-2 -1,-1 -1,-2 -1,-4l0 -11z"/>
  <path fill="#337AB7" fill-rule="nonzero" d="M0 83c0,0 0,0 1,0 0,0 0,0 0,0 1,0 1,0 2,-1 0,0 0,0 0,-1l0 -19 12 0 0 21 2 0 0 6 -3 0 0 -3 -10 0 0 3 -4 0 0 -6zm7 -3c0,1 0,2 0,3l5 0 0 -17 -5 0 0 14zm15 1c0,1 1,1 1,2 0,0 1,0 1,0 1,0 1,0 2,0 0,-1 0,-1 0,-2l0 -13c0,-1 0,-2 0,-2 -1,0 -1,-1 -2,-1 0,0 -1,1 -1,1 0,0 -1,1 -1,2l0 13zm-3 -13c0,-2 0,-3 1,-4 1,-2 3,-2 4,-2 2,0 4,0 5,2 1,1 1,2 1,4l0 13c0,1 0,3 -1,4 -1,1 -3,2 -5,2 -1,0 -3,-1 -4,-2 -1,-1 -1,-3 -1,-4l0 -13zm24 9l-1 2 0 7 -4 0 0 -24 4 0 0 11 5 -11 3 0 -5 11 5 13 -3 0 -4 -9zm15 -15c2,0 3,1 4,2 1,1 1,2 1,4l0 1c0,1 0,2 0,3 -1,0 -1,1 -2,1 1,1 2,2 2,2 1,1 1,2 1,4l0 2c0,1 -1,3 -2,4 -1,1 -2,1 -4,1l-6 0 0 -24 6 0zm-2 13l0 8 2 0c1,0 1,0 2,-1 0,0 0,-1 0,-1l0 -3c0,-1 0,-1 -1,-2 0,0 -1,-1 -1,-1l-2 0zm0 -9l0 6 1 0c1,0 2,0 2,-1 0,0 1,-1 1,-2l0 -1c0,-1 0,-1 -1,-2 0,0 -1,0 -1,0l-2 0zm22 20l-4 0 0 -4 -5 0 0 4 -4 0 4 -24 5 0 4 24zm-8 -7l3 0 -2 -13 -1 13zm16 -17c2,0 3,1 4,2 1,1 1,2 1,4l0 3c0,2 0,4 -1,5 -1,1 -2,1 -4,1l-2 0 0 9 -4 0 0 -24 6 0zm-2 4l0 8 2 0c0,0 1,0 1,-1 0,0 0,-1 0,-1l0 -4c0,-1 0,-2 0,-2 0,0 -1,0 -1,0l-2 0zm8 -4l12 0 0 4 -4 0 0 20 -4 0 0 -20 -4 0 0 -4zm17 24l-4 0 0 -24 4 0 0 15 4 -15 4 0 0 24 -3 0 0 -17 -5 17zm17 -24c2,0 3,1 4,2 1,1 1,2 1,4l0 3c0,2 0,4 -1,5 -1,1 -2,1 -4,1l-2 0 0 9 -4 0 0 -24 6 0zm-2 4l0 8 2 0c0,0 1,0 1,-1 0,0 1,-1 1,-1l0 -4c0,-1 -1,-2 -1,-2 0,0 -1,0 -1,0l-2 0zm13 20l-4 0 0 -24 4 0 0 15 3 -15 5 0 0 24 -3 0 0 -17 -5 17zm16 -18l-1 -6 3 0 -1 6 5 -3 1 3 -6 1 5 4 -3 2 -3 -5 -2 5 -3 -2 4 -4 -5 -1 1 -3 5 3z"/>
 </g>
</svg>
