<?xml version="1.0" encoding="UTF-8"?>
<!DOCTYPE svg PUBLIC "-//W3C//DTD SVG 1.1//EN" "http://www.w3.org/Graphics/SVG/1.1/DTD/svg11.dtd">
<!-- Creator: CorelDRAW X7 -->
<svg xmlns="http://www.w3.org/2000/svg" xml:space="preserve" width="464px" height="289px" version="1.1" shape-rendering="geometricPrecision" text-rendering="geometricPrecision" image-rendering="optimizeQuality" fill-rule="evenodd" clip-rule="evenodd"
viewBox="0 0 213 133"
 xmlns:xlink="http://www.w3.org/1999/xlink">
 <g id="Слой_x0020_1">
  <metadata id="CorelCorpID_0Corel-Layer"/>
  <path fill="#E31E24" fill-rule="nonzero" d="M25 18l12 0 0 5 -12 0 0 -5zm14 17c0,0 0,0 1,0 0,0 1,0 1,0 1,0 2,0 2,-1 1,0 1,-1 1,-3l0 -31 21 0 0 35 3 0 0 10 -7 0 0 -4 -16 0 0 4 -6 0 0 -10zm12 -4c0,1 0,3 -1,4l8 0 0 -29 -7 0 0 25zm25 0c0,2 0,3 1,4 1,0 1,0 2,0 1,0 2,0 3,0 0,-1 1,-2 1,-4l0 -21c0,-2 -1,-3 -1,-3 -1,-1 -2,-1 -3,-1 -1,0 -1,0 -2,1 -1,0 -1,1 -1,3l0 21zm-6 -21c0,-3 1,-6 2,-7 2,-2 4,-3 7,-3 3,0 6,1 8,3 1,1 2,4 2,7l0 21c0,3 -1,6 -2,8 -2,1 -5,2 -8,2 -3,0 -5,-1 -7,-2 -1,-2 -2,-5 -2,-8l0 -21zm36 -4c1,0 2,-1 3,-1 1,0 1,-1 2,-1 0,0 1,-1 1,-2 0,0 1,-1 1,-2l4 0 0 41 -6 0 0 -31 -5 0 0 -4zm25 25c0,2 0,3 0,4 1,0 2,0 3,0 1,0 2,0 2,0 1,-1 1,-2 1,-4l0 -21c0,-2 0,-3 -1,-3 0,-1 -1,-1 -2,-1 -1,0 -2,0 -3,1 0,0 0,1 0,3l0 21zm-7 -21c0,-3 1,-6 3,-7 1,-2 4,-3 7,-3 3,0 5,1 7,3 2,1 2,4 2,7l0 21c0,3 0,6 -2,8 -2,1 -4,2 -7,2 -3,0 -6,-1 -7,-2 -2,-2 -3,-5 -3,-8l0 -21zm36 10c0,2 1,3 2,3 1,0 1,-1 2,-1 0,0 0,-1 0,-2l0 -14c0,-1 0,-1 0,-2 -1,0 -1,0 -2,0 -1,0 -2,1 -2,2l0 14zm-4 -13c0,-2 1,-4 2,-5 1,-1 2,-2 4,-2 2,0 4,1 5,2 1,1 1,3 1,5l0 13c0,2 0,4 -1,5 -1,1 -3,1 -5,1 -2,0 -3,0 -4,-1 -1,-1 -2,-3 -2,-5l0 -13zm22 -7l4 0 -16 41 -4 0 16 -41zm2 35c0,2 1,3 2,3 1,0 1,-1 2,-1 0,0 0,-1 0,-2l0 -14c0,-1 0,-1 0,-2 -1,0 -1,0 -2,0 -1,0 -2,1 -2,2l0 14zm-4 -13c0,-3 1,-4 2,-5 1,-1 2,-2 4,-2 2,0 4,1 5,2 1,1 1,2 1,5l0 13c0,2 0,3 -1,5 -1,1 -3,1 -5,1 -2,0 -3,0 -4,-1 -1,-2 -2,-3 -2,-5l0 -13z"/>
  <path fill="#337AB7" fill-rule="nonzero" d="M4 85l-4 0 0 -28 4 0 0 12 6 0 0 -12 4 0 0 28 -4 0 0 -12 -6 0 0 12zm28 0l-5 0 0 -5 -6 0 -1 5 -4 0 5 -28 6 0 5 28zm-10 -9l4 0 -2 -14 -2 14zm28 1l3 -20 6 0 0 28 -4 0 0 -20 -3 20 -4 0 -4 -20 0 20 -4 0 0 -28 7 0 3 20zm12 -20l5 0 0 28 -5 0 0 -28zm12 28l-5 0 6 -16 -6 -12 4 0 6 12 0 -12 5 0 0 12 6 -12 4 0 -6 12 6 16 -5 0 -4 -11 -1 2 0 9 -5 0 0 -9 -1 -2 -4 11zm28 -11l-1 3 0 8 -5 0 0 -28 5 0 0 12 6 -12 4 0 -6 12 6 16 -5 0 -4 -11zm11 -17l5 0 0 28 -5 0 0 -28zm17 20l3 -20 7 0 0 28 -5 0 0 -20 -3 20 -4 0 -3 -20 0 20 -4 0 0 -28 6 0 3 20zm17 8l-4 0 0 -28 4 0 0 12 5 0 0 -12 5 0 0 28 -5 0 0 -12 -5 0 0 12zm28 0l-5 0 -1 -5 -5 0 -1 5 -4 0 5 -28 6 0 5 28zm-10 -9l4 0 -2 -14 -2 14zm11 -19l13 0 0 4 -4 0 0 24 -5 0 0 -24 -4 0 0 -4zm20 28l-4 0 0 -28 4 0 0 12 5 0 0 -12 5 0 0 28 -5 0 0 -12 -5 0 0 12zm13 -28l4 0 0 28 -4 0 0 -28zm-145 69c0,0 1,0 1,0 0,0 0,0 1,0 0,0 1,0 2,-1 0,0 0,-1 0,-2l0 -22 14 0 0 25 3 0 0 7 -5 0 0 -3 -11 0 0 3 -5 0 0 -7zm9 -3c0,1 0,2 -1,3l6 0 0 -21 -5 0 0 18zm20 -22c3,0 4,1 5,2 1,1 2,3 2,5l0 1c0,1 0,3 -1,4 0,0 -1,1 -2,2 1,0 2,1 3,2 0,1 0,2 0,4l0 2c0,2 0,4 -1,5 -1,1 -3,2 -5,2l-7 0 0 -29 6 0zm-2 16l0 9 3 0c0,0 1,0 1,-1 1,0 1,-1 1,-2l0 -3c0,-1 0,-2 -1,-2 0,-1 -1,-1 -2,-1l-2 0zm0 -12l0 8 2 0c1,0 1,0 2,-1 0,0 1,-1 1,-2l0 -2c0,-1 -1,-1 -1,-2 0,0 -1,-1 -2,-1l-2 0zm17 8l6 0 0 4 -6 0 0 9 7 0 0 4 -12 0 0 -29 12 0 0 4 -7 0 0 8zm17 -12c2,0 4,1 5,2 1,1 1,3 1,5l0 4c0,2 0,4 -1,5 -1,2 -3,2 -5,2l-3 0 0 11 -4 0 0 -29 7 0zm-3 4l0 10 3 0c0,0 1,0 1,-1 1,0 1,-1 1,-2l0 -4c0,-1 0,-2 -1,-2 0,0 -1,-1 -1,-1l-3 0zm11 -4l5 0 0 29 -5 0 0 -29zm14 7l-1 -7 3 0 -1 7 6 -3 2 3 -7 2 5 4 -3 3 -3 -7 -4 7 -3 -3 5 -4 -6 -2 1 -3 6 3z"/>
 </g>
</svg>
