<?xml version="1.0" encoding="utf-8"?>
<!-- Generator: Adobe Illustrator 24.3.0, SVG Export Plug-In . SVG Version: 6.00 Build 0)  -->
<svg version="1.1"
	 id="Layer_1" text-rendering="geometricPrecision" shape-rendering="geometricPrecision" image-rendering="optimizeQuality"
	 xmlns="http://www.w3.org/2000/svg" xmlns:xlink="http://www.w3.org/1999/xlink" x="0px" y="0px" viewBox="0 0 464 289"
	 style="enable-background:new 0 0 464 289;" xml:space="preserve">
<style type="text/css">
	.st0{fill:#E31E24;}
	.st1{fill:#337AB7;}
</style>
<path class="st0" d="M54.9,39.1H81V50H54.9V39.1z M85.3,76.1c0,0,0,0,2.2,0h2.2c2.2,0,4.3,0,4.3-2.2c2.2,0,2.2-2.2,2.2-6.5V0h45.6
	v76.1h6.5v21.7h-15.2v-8.7H98.4v8.7h-13V76.1z M111.4,67.4c0,2.2,0,6.5-2.2,8.7h17.4V13h-15.2V67.4z M165.7,67.4
	c0,4.3,0,6.5,2.2,8.7c2.2,0,2.2,0,4.3,0c2.2,0,4.3,0,6.5,0c0-2.2,2.2-4.3,2.2-8.7V21.7c0-4.3-2.2-6.5-2.2-6.5
	c-2.2-2.2-4.3-2.2-6.5-2.2c-2.2,0-2.2,0-4.3,2.2c-2.2,0-2.2,2.2-2.2,6.5V67.4z M152.7,21.7c0-6.5,2.2-13,4.3-15.2
	c4.3-4.3,8.7-6.5,15.2-6.5c6.5,0,13,2.2,17.4,6.5c2.2,2.2,4.3,8.7,4.3,15.2v45.6c0,6.5-2.2,13-4.3,17.4c-4.3,2.2-10.9,4.3-17.4,4.3
	c-6.5,0-10.9-2.2-15.2-4.3c-2.2-4.3-4.3-10.9-4.3-17.4V21.7z M230.9,13c2.2,0,4.3-2.2,6.5-2.2c2.2,0,2.2-2.2,4.3-2.2
	c0,0,2.2-2.2,2.2-4.3c0,0,2.2-2.2,2.2-4.3h8.7v89.1h-13V21.7h-10.9V13z M285.2,67.4c0,4.3,0,6.5,0,8.7c2.2,0,4.3,0,6.5,0
	s4.3,0,4.3,0c2.2-2.2,2.2-4.3,2.2-8.7V21.7c0-4.3,0-6.5-2.2-6.5c0-2.2-2.2-2.2-4.3-2.2s-4.3,0-6.5,2.2c0,0,0,2.2,0,6.5V67.4z
	 M270,21.7c0-6.5,2.2-13,6.5-15.2c2.2-4.3,8.7-6.5,15.2-6.5s10.9,2.2,15.2,6.5c4.3,2.2,4.3,8.7,4.3,15.2v45.6c0,6.5,0,13-4.3,17.4
	c-4.3,2.2-8.7,4.3-15.2,4.3s-13-2.2-15.2-4.3c-4.3-4.3-6.5-10.9-6.5-17.4V21.7z M348.3,43.5c0,4.3,2.2,6.5,4.3,6.5s2.2-2.2,4.3-2.2
	c0,0,0-2.2,0-4.3V13c0-2.2,0-2.2,0-4.3c-2.2,0-2.2,0-4.3,0s-4.3,2.2-4.3,4.3V43.5z M339.6,15.2c0-4.3,2.2-8.7,4.3-10.9
	c2.2-2.2,4.3-4.3,8.7-4.3s8.7,2.2,10.9,4.3c2.2,2.2,2.2,6.5,2.2,10.9v28.2c0,4.3,0,8.7-2.2,10.9c-2.2,2.2-6.5,2.2-10.9,2.2
	s-6.5,0-8.7-2.2c-2.2-2.2-4.3-6.5-4.3-10.9V15.2z M387.4,0h8.7l-34.8,89.1h-8.7L387.4,0z M391.7,76.1c0,4.3,2.2,6.5,4.3,6.5
	s2.2-2.2,4.3-2.2c0,0,0-2.2,0-4.3V45.6c0-2.2,0-2.2,0-4.3c-2.2,0-2.2,0-4.3,0s-4.3,2.2-4.3,4.3V76.1z M383,47.8
	c0-6.5,2.2-8.7,4.3-10.9c2.2-2.2,4.3-4.3,8.7-4.3s8.7,2.2,10.9,4.3c2.2,2.2,2.2,4.3,2.2,10.9v28.2c0,4.3,0,6.5-2.2,10.9
	c-2.2,2.2-6.5,2.2-10.9,2.2s-6.5,0-8.7-2.2c-2.2-4.3-4.3-6.5-4.3-10.9V47.8z"/>
<path class="st1" d="M27.7,163.7h-8.1v-56.8h8.1v24.4h12.2v-24.4H48v56.8h-8.1v-24.4H27.7V163.7z M84.5,163.7H74.4v-10.2H62.2
	l-2,10.2h-8.1l10.2-56.8h12.2L84.5,163.7z M64.2,145.4h8.1L68.3,117L64.2,145.4z M121.1,147.5l6.1-40.6h12.2v56.8h-8.1v-40.6
	l-6.1,40.6H117l-8.1-40.6v40.6h-8.1v-56.8H115L121.1,147.5z M145.4,106.9h10.2v56.8h-10.2V106.9z M169.8,163.7h-10.2l12.2-32.5
	l-12.2-24.4h8.1l12.2,24.4v-24.4h10.2v24.4l12.2-24.4h8.1l-12.2,24.4l12.2,32.5h-10.2l-8.1-22.3l-2,4.1v18.3H180v-18.3l-2-4.1
	L169.8,163.7z M226.7,141.4l-2,6.1v16.2h-10.2v-56.8h10.2v24.4l12.2-24.4h8.1l-12.2,24.4l12.2,32.5h-10.2L226.7,141.4z M249,106.9
	h10.2v56.8H249V106.9z M283.5,147.5l6.1-40.6h14.2v56.8h-10.2v-40.6l-6.1,40.6h-8.1l-6.1-40.6v40.6h-8.1v-56.8h12.2L283.5,147.5z
	 M318,163.7h-8.1v-56.8h8.1v24.4h10.2v-24.4h10.2v56.8h-10.2v-24.4H318V163.7z M374.9,163.7h-10.2l-2-10.2h-10.2l-2,10.2h-8.1
	l10.2-56.8h12.2L374.9,163.7z M354.6,145.4h8.1l-4.1-28.4L354.6,145.4z M376.9,106.9h26.4v8.1h-8.1v48.7H385V115h-8.1V106.9z
	 M417.5,163.7h-8.1v-56.8h8.1v24.4h10.2v-24.4h10.2v56.8h-10.2v-24.4h-10.2V163.7z M443.9,106.9h8.1v56.8h-8.1V106.9z M148.5,232.9
	h2c0,0,0,0,2,0c0,0,2,0,4.1-2c0,0,0-2,0-4.1v-44.7h28.4v50.8h6.1v14.2H181v-6.1h-22.3v6.1h-10.2V232.9z M166.8,226.8
	c0,2,0,4.1-2,6.1h12.2v-42.6h-10.2V226.8z M207.4,182.2c6.1,0,8.1,2,10.2,4.1c2,2,4.1,6.1,4.1,10.2v2c0,2,0,6.1-2,8.1
	c0,0-2,2-4.1,4.1c2,0,4.1,2,6.1,4.1c0,2,0,4.1,0,8.1v4.1c0,4.1,0,8.1-2,10.2s-6.1,4.1-10.2,4.1h-14.2v-58.9H207.4z M203.3,214.7
	v18.3h6.1c0,0,2,0,2-2c2,0,2-2,2-4.1v-6.1c0-2,0-4.1-2-4.1c0-2-2-2-4.1-2H203.3z M203.3,190.3v16.2h4.1c2,0,2,0,4.1-2c0,0,2-2,2-4.1
	v-4.1c0-2-2-2-2-4.1c0,0-2-2-4.1-2H203.3z M237.8,206.5H250v8.1h-12.2v18.3H252v8.1h-24.4v-58.9H252v8.1h-14.2V206.5z M272.3,182.2
	c4.1,0,8.1,2,10.2,4.1s2,6.1,2,10.2v8.1c0,4.1,0,8.1-2,10.2c-2,4.1-6.1,4.1-10.2,4.1h-6.1v22.3h-8.1v-58.9H272.3z M266.3,190.3v20.3
	h6.1c0,0,2,0,2-2c2,0,2-2,2-4.1v-8.1c0-2,0-4.1-2-4.1l-2-2H266.3z M288.6,182.2h10.2v58.9h-10.2V182.2z M317,196.4l-2-14.2h6.1
	l-2,14.2l12.2-6.1l4.1,6.1l-14.2,4.1l10.2,8.1l-6.1,6.1l-6.1-14.2l-8.1,14.2l-6.1-6.1l10.2-8.1l-12.2-4.1l2-6.1L317,196.4z"/>
<g>
	<path d="M258.5,266.4l-2.1,2.7v0l3.3-0.4v1.5l-3.3-0.4v0l2.1,2.6l-1.4,0.8l-1.3-3h0l-1.4,3l-1.2-0.8l2.1-2.6v0l-3.2,0.4v-1.5
		l3.2,0.4v0l-2-2.6l1.3-0.8l1.3,3h0l1.3-3L258.5,266.4z"/>
	<path d="M266,266.8c1-0.6,2.3-1.1,3.8-1.1c2.5,0,4.3,1.3,4.3,3.6c0,1.8-1.3,3.2-3,3.5v0c2.1,0.2,3.5,1.6,3.5,3.7
		c0,3-2.6,4.2-5.3,4.2c-1.3,0-2.7-0.3-3.8-1l0.5-1.5c0.8,0.5,2.1,0.9,3.3,0.9c2.2,0,3.4-1.2,3.4-2.8c0-2.2-2.1-2.8-4-2.8h-0.9v-1.4
		h0.9c1.9,0,3.4-1.2,3.4-2.7c0-1.5-1-2.3-2.6-2.3c-1.1,0-2.2,0.5-3,1L266,266.8z"/>
	<path d="M279,270v4.2h5V270h1.9v10.5H284v-4.7h-5v4.7h-1.9V270H279z"/>
	<path d="M290.7,270v4.4c0,1.7,0,2.7-0.1,4.2l0.1,0c0.6-1.3,1-2,1.7-3.2l3.3-5.4h2.2v10.5H296v-4.4c0-1.7,0-2.6,0.1-4.3h-0.1
		c-0.7,1.3-1.1,2.2-1.7,3.2c-1,1.6-2.1,3.6-3.3,5.5h-2.2V270H290.7z"/>
	<path d="M301.8,270l3.5,4.6h0.4V270h1.8v4.6h0.4l3.5-4.6h2.2l-4.1,4.8c1.6,0.2,2.5,1.1,3.1,2.8c0.4,1,0.7,2.1,1.1,2.9h-1.9
		c-0.3-0.6-0.6-1.5-1-2.4c-0.6-1.7-1.6-2.2-3-2.2h-0.3v4.6h-1.8v-4.6h-0.3c-1.5,0-2.4,0.5-3,2.2c-0.3,0.9-0.6,1.7-1,2.4h-1.8
		c0.4-0.8,0.8-1.9,1.1-2.9c0.6-1.7,1.6-2.6,3.2-2.8l-4.1-4.8H301.8z"/>
	<path d="M317.2,270v4.5h0.5l3.9-4.5h2.3l-4.6,4.7c1.7,0.2,2.7,1.3,3.5,3.2c0.3,0.7,0.6,1.7,1.1,2.6h-2c-0.3-0.5-0.6-1.3-1-2.1
		c-0.7-1.7-1.7-2.5-3.5-2.5h-0.4v4.6h-1.9V270H317.2z"/>
	<path d="M331.7,280.5l-0.2-1.3h-0.1c-0.6,0.8-1.7,1.6-3.2,1.6c-2.1,0-3.2-1.5-3.2-3c0-2.5,2.2-3.9,6.3-3.9v-0.2
		c0-0.9-0.2-2.4-2.4-2.4c-1,0-2,0.3-2.7,0.8l-0.4-1.3c0.9-0.6,2.1-0.9,3.4-0.9c3.2,0,4,2.2,4,4.3v3.9c0,0.9,0,1.8,0.2,2.5H331.7z
		 M331.4,275.2c-2.1,0-4.4,0.3-4.4,2.4c0,1.2,0.8,1.8,1.8,1.8c1.4,0,2.2-0.9,2.5-1.8c0.1-0.2,0.1-0.4,0.1-0.6V275.2z"/>
	<path d="M349,270v9l1.1,0l-0.1,4.7h-1.5l-0.1-3.3h-7.2l-0.1,3.3h-1.5l-0.1-4.7l0.9,0c0.5-0.7,0.8-1.4,1-2.1
		c0.4-1.3,0.6-2.7,0.6-4.2V270H349z M343.7,273.2c0,1.4-0.2,2.7-0.5,3.9c-0.2,0.7-0.5,1.4-0.8,1.9h4.8v-7.6h-3.4V273.2z"/>
	<path d="M361.7,275.2c0,3.9-2.7,5.6-5.2,5.6c-2.8,0-5-2.1-5-5.4c0-3.5,2.3-5.6,5.2-5.6C359.7,269.8,361.7,272,361.7,275.2z
		 M353.4,275.3c0,2.3,1.3,4,3.2,4c1.8,0,3.2-1.7,3.2-4.1c0-1.8-0.9-4-3.1-4C354.4,271.2,353.4,273.3,353.4,275.3z"/>
	<path d="M377.2,266.4v1.3l-6.1,12.8h-2l6.1-12.4v0h-6.9v-1.6H377.2z"/>
	<path d="M386.2,270v4.5h0.5l3.9-4.5h2.3l-4.6,4.7c1.7,0.2,2.7,1.3,3.5,3.2c0.3,0.7,0.6,1.7,1.1,2.6h-2c-0.3-0.5-0.6-1.3-1-2.1
		c-0.7-1.7-1.7-2.5-3.5-2.5h-0.4v4.6h-1.9V270H386.2z"/>
	<path d="M394.7,270.2c0.7-0.1,2.1-0.2,3.3-0.2c1.8,0,4.6,0.3,4.6,2.6c0,1.3-1,2.1-2.2,2.4v0c1.5,0.2,2.7,1.1,2.7,2.6
		c0,2.7-3.5,3.1-5.5,3.1c-1.2,0-2.4-0.1-2.9-0.1V270.2z M396.5,279.2c0.5,0.1,0.9,0.1,1.5,0.1c1.3,0,3.2-0.3,3.2-1.8
		c0-1.5-1.5-1.8-3.3-1.8h-1.4V279.2z M396.5,274.4h1.4c1.4,0,2.9-0.4,2.9-1.6c0-1-0.9-1.5-2.8-1.5c-0.6,0-1,0-1.5,0.1V274.4z"/>
	<path d="M407.6,267.1c0,0.6-0.5,1.2-1.2,1.2c-0.7,0-1.1-0.5-1.1-1.2c0-0.7,0.5-1.2,1.2-1.2C407.2,265.9,407.6,266.4,407.6,267.1z
		 M405.5,280.5V270h1.9v10.5H405.5z"/>
	<path d="M417.6,270v1.5h-3.3v8.9h-1.9v-8.9h-3.3V270H417.6z"/>
	<path d="M421.1,270v4.2h5V270h1.9v10.5H426v-4.7h-5v4.7h-1.9V270H421.1z"/>
	<path d="M438.7,280.5h-1.9v-4.4h-1.4c-0.8,0-1.3,0.2-1.8,0.6c-0.8,0.6-1.1,1.9-1.5,2.9c-0.1,0.3-0.3,0.6-0.4,0.9h-2
		c0.2-0.3,0.5-0.7,0.6-1.2c0.5-1,0.7-2.4,1.6-3.2c0.3-0.3,0.7-0.5,1.2-0.6v-0.1c-1.4-0.2-2.8-1-2.8-2.6c0-1.1,0.6-1.8,1.4-2.3
		c0.9-0.5,2.1-0.7,3.5-0.7c1.3,0,2.5,0.1,3.4,0.2V280.5z M436.9,271.3c-0.5-0.1-0.9-0.1-1.6-0.1c-1.3,0-2.8,0.4-2.8,1.8
		c0,1.3,1.7,1.8,2.8,1.8c0.8,0,1.2,0,1.6,0V271.3z"/>
</g>
</svg>
