<?xml version="1.0" encoding="utf-8"?>
<!-- Generator: Adobe Illustrator 24.3.0, SVG Export Plug-In . SVG Version: 6.00 Build 0)  -->
<svg version="1.1"
	 id="Layer_1" shape-rendering="geometricPrecision" text-rendering="geometricPrecision" image-rendering="optimizeQuality"
	 xmlns="http://www.w3.org/2000/svg" xmlns:xlink="http://www.w3.org/1999/xlink" x="0px" y="0px" viewBox="0 0 343 151"
	 style="enable-background:new 0 0 343 151;" xml:space="preserve">
<style type="text/css">
	.st0{fill:#FFFFFF;}
</style>
<g>
	<path class="st0" d="M5.4,11.5h12.7c4,0,7.1,0.3,9.1,0.9c2.1,0.6,3.7,1.9,5,3.8c1.3,1.9,1.9,5,1.9,9.2c0,2.9-0.4,4.9-1.3,6
		c-0.9,1.1-2.7,2-5.3,2.6c2.9,0.7,4.9,1.8,6,3.3c1,1.5,1.6,3.9,1.6,7.1V49c0,3.3-0.4,5.8-1.1,7.4c-0.8,1.6-2,2.7-3.6,3.3
		c-1.7,0.6-5,0.9-10.2,0.9H5.4V11.5z M18.2,19.9v10.9c0.5,0,1,0,1.3,0c1.3,0,2-0.3,2.4-0.9c0.3-0.6,0.5-2.4,0.5-5.3
		c0-1.5-0.1-2.6-0.4-3.2c-0.3-0.6-0.7-1-1.1-1.2C20.4,20,19.5,19.9,18.2,19.9z M18.2,38.4v13.7c1.8-0.1,2.9-0.3,3.4-0.8
		c0.5-0.5,0.7-1.7,0.7-3.7V43c0-2.1-0.2-3.4-0.7-3.8C21.2,38.8,20.1,38.5,18.2,38.4z"/>
	<path class="st0" d="M65.5,11.5L61,33.2l6.8,27.3H56c-1.4-4.9-2.7-10.8-3.9-17.9c-0.3,3.1-0.8,6.4-1.3,9.9l-1.2,8H37.1l4.6-27.3
		l-4.6-21.7h12.3c0.2,1.4,0.7,3.6,1.3,6.7c0.5,2.4,1,4.6,1.3,6.6l2.7-13.4H65.5z"/>
	<path class="st0" d="M82.3,11.5v49H69.6v-49H82.3z"/>
	<path class="st0" d="M123.9,69h-8.8v-8.4H94.5V69h-8.8V50.3h2.6c1.4-4,2.5-9.3,3.4-15.8C92.6,27.9,93,20.8,93,13v-1.5h28.3v38.8
		h2.6V69z M108.5,50.2V21.2h-3.8v0.4c0,9.4-1,19-3,28.7H108.5z"/>
	<path class="st0" d="M157.2,11.5v49h-12.7V40h-3.8v20.6h-12.7v-49h12.7v17.5h3.8V11.5H157.2z"/>
	<path class="st0" d="M175,11.5v49h-12.7v-49H175z"/>
	<path class="st0" d="M227.5,69h-8.8v-8.4h-20.6V69h-8.8V50.3h2.6c1.4-4,2.5-9.3,3.4-15.8c0.9-6.5,1.3-13.7,1.3-21.5v-1.5h28.3v38.8
		h2.6V69z M212.1,50.2V21.2h-3.8v0.4c0,9.4-1,19-3,28.7H212.1z"/>
	<path class="st0" d="M231.5,11.5h12.7c4,0,7.1,0.3,9.1,0.9c2.1,0.6,3.7,1.9,5,3.8c1.3,1.9,1.9,5,1.9,9.2c0,2.9-0.4,4.9-1.3,6
		c-0.9,1.1-2.7,2-5.3,2.6c2.9,0.7,4.9,1.8,6,3.3c1,1.5,1.6,3.9,1.6,7.1V49c0,3.3-0.4,5.8-1.1,7.4c-0.8,1.6-2,2.7-3.6,3.3
		c-1.7,0.6-5,0.9-10.2,0.9h-14.7V11.5z M244.2,19.9v10.9c0.5,0,1,0,1.3,0c1.3,0,2-0.3,2.4-0.9c0.3-0.6,0.5-2.4,0.5-5.3
		c0-1.5-0.1-2.6-0.4-3.2c-0.3-0.6-0.7-1-1.1-1.2C246.4,20,245.5,19.9,244.2,19.9z M244.2,38.4v13.7c1.8-0.1,2.9-0.3,3.4-0.8
		c0.5-0.5,0.7-1.7,0.7-3.7V43c0-2.1-0.2-3.4-0.7-3.8C247.3,38.8,246.1,38.5,244.2,38.4z"/>
	<path class="st0" d="M265.7,11.5H287v9.8h-8.5v9.3h8V40h-8v10.8h9.4v9.8h-22.1V11.5z"/>
	<path class="st0" d="M291.5,11.5h12.8c3.5,0,6.1,0.3,8,0.8c1.9,0.5,3.3,1.3,4.2,2.4c0.9,1,1.6,2.3,1.9,3.7c0.3,1.5,0.5,3.7,0.5,6.8
		v4.3c0,3.1-0.3,5.4-1,6.8c-0.6,1.4-1.8,2.5-3.6,3.3c-1.7,0.8-4,1.2-6.8,1.2h-3.4v19.7h-12.7V11.5z M304.2,19.9v12.5
		c0.4,0,0.7,0,0.9,0c1.2,0,2-0.3,2.4-0.9c0.5-0.6,0.7-1.8,0.7-3.6v-4c0-1.7-0.3-2.8-0.8-3.3C307,20.2,305.9,19.9,304.2,19.9z"/>
	<path class="st0" d="M335.4,11.5v49h-12.7v-49H335.4z"/>
	<path class="st0" d="M47.8,85.9l-3.5,32.5c-0.5,5.1-1.1,8.7-1.8,10.8s-1.8,3.5-3.6,4.4c-1.8,0.9-4.8,1.3-8.9,1.3h-7.4v-6.3h0.8
		c1.7,0,2.7-0.1,3.1-0.4c0.4-0.3,0.6-0.7,0.6-1.3c0,0-0.2-1.4-0.7-4.1l-6.7-36.9h11.1l4,30.5l2-30.5H47.8z"/>
	<path class="st0" d="M61.3,85.9h12.8l0.1,20.7c2.4-0.1,3.6-1.4,3.7-4l0.2-9.6c0.1-3.5,0.8-5.9,2.1-7.1h11.8
		c-1.2,1.2-1.7,3.7-1.7,7.4l0.1,8.4c0,5.1-2.8,8-8.6,8.7c5.8,0.7,8.6,3.6,8.6,8.8l-0.1,7.8c0,3.7,0.5,6.4,1.7,7.9H80.2
		c-1.4-1.2-2.1-3.6-2.1-7.1v-9.6c0-1.2-0.4-2.2-1.1-2.9c-0.7-0.7-1.7-1.1-2.9-1.1l-0.1,20.8H61.3V85.9z"/>
	<path class="st0" d="M94.5,85.9h12.7c4,0,7.1,0.3,9.1,0.9c2.1,0.6,3.7,1.9,5,3.8c1.3,1.9,1.9,5,1.9,9.2c0,2.9-0.4,4.9-1.3,6
		c-0.9,1.1-2.7,2-5.3,2.6c2.9,0.7,4.9,1.8,6,3.3c1,1.5,1.6,3.9,1.6,7.1v4.5c0,3.3-0.4,5.8-1.1,7.4c-0.8,1.6-2,2.7-3.6,3.3
		c-1.7,0.6-5,0.9-10.2,0.9H94.5V85.9z M107.3,94.3v10.9c0.5,0,1,0,1.3,0c1.3,0,2-0.3,2.4-0.9c0.3-0.6,0.5-2.4,0.5-5.3
		c0-1.5-0.1-2.6-0.4-3.2c-0.3-0.6-0.7-1-1.1-1.2C109.5,94.4,108.6,94.3,107.3,94.3z M107.3,112.8v13.7c1.8-0.1,2.9-0.3,3.4-0.8
		c0.5-0.5,0.7-1.7,0.7-3.7v-4.6c0-2.1-0.2-3.4-0.7-3.8C110.3,113.2,109.2,112.9,107.3,112.8z"/>
	<path class="st0" d="M150.8,85.9l7.3,49h-13l-0.7-8.8h-4.6l-0.8,8.8h-13.2l6.5-49H150.8z M144,117.4c-0.6-5.6-1.3-12.4-1.9-20.6
		c-1.3,9.4-2.1,16.2-2.4,20.6H144z"/>
	<path class="st0" d="M160.3,85.9h12.8c3.5,0,6.1,0.3,8,0.8c1.9,0.5,3.3,1.3,4.2,2.4s1.6,2.3,1.9,3.7s0.5,3.7,0.5,6.8v4.3
		c0,3.1-0.3,5.4-1,6.8c-0.6,1.4-1.8,2.5-3.6,3.3c-1.7,0.8-4,1.2-6.8,1.2H173v19.7h-12.7V85.9z M173,94.3v12.5c0.4,0,0.7,0,0.9,0
		c1.2,0,2-0.3,2.4-0.9s0.7-1.8,0.7-3.6v-4c0-1.7-0.3-2.8-0.8-3.3C175.7,94.6,174.7,94.3,173,94.3z"/>
	<path class="st0" d="M217,85.9v9.8h-7.6v39.2h-12.7V95.7h-7.5v-9.8H217z"/>
	<path class="st0" d="M248.4,134.9h-10.7v-22.3l-6.6,22.3H220v-49h10.7V108l7.1-22.1h10.7V134.9z"/>
	<path class="st0" d="M253.5,85.9h12.8c3.5,0,6.1,0.3,8,0.8c1.9,0.5,3.3,1.3,4.2,2.4c0.9,1,1.6,2.3,1.9,3.7c0.3,1.5,0.5,3.7,0.5,6.8
		v4.3c0,3.1-0.3,5.4-1,6.8c-0.6,1.4-1.8,2.5-3.6,3.3c-1.7,0.8-4,1.2-6.8,1.2h-3.4v19.7h-12.7V85.9z M266.2,94.3v12.5
		c0.4,0,0.7,0,0.9,0c1.2,0,2-0.3,2.4-0.9c0.5-0.6,0.7-1.8,0.7-3.6v-4c0-1.7-0.3-2.8-0.8-3.3C269,94.6,267.9,94.3,266.2,94.3z"/>
	<path class="st0" d="M309.9,85.9l-3.5,32.5c-0.5,5.1-1.1,8.7-1.8,10.8c-0.6,2.1-1.8,3.5-3.6,4.4c-1.8,0.9-4.8,1.3-8.9,1.3h-7.4
		v-6.3h0.8c1.7,0,2.7-0.1,3.1-0.4s0.6-0.7,0.6-1.3c0,0-0.2-1.4-0.7-4.1l-6.7-36.9h11.1l4,30.5l2-30.5H309.9z"/>
</g>
</svg>
