<?xml version="1.0" encoding="UTF-8"?>
<!DOCTYPE svg PUBLIC "-//W3C//DTD SVG 1.1//EN" "http://www.w3.org/Graphics/SVG/1.1/DTD/svg11.dtd">
<!-- Creator: CorelDRAW X7 -->
<svg xmlns="http://www.w3.org/2000/svg" xml:space="preserve" width="343px" height="151px" version="1.1" shape-rendering="geometricPrecision" text-rendering="geometricPrecision" image-rendering="optimizeQuality" fill-rule="evenodd" clip-rule="evenodd"
viewBox="0 0 63 28"
 xmlns:xlink="http://www.w3.org/1999/xlink">
 <g id="Слой_x0020_1">
  <metadata id="CorelCorpID_0Corel-Layer"/>
  <path fill="#FEFEFE" fill-rule="nonzero" d="M3 0c0,0 1,0 2,1 0,0 0,1 0,1l0 1c0,0 0,1 0,1 0,1 -1,1 -1,1 0,0 1,1 1,1 0,0 0,1 0,1l0 1c0,1 0,2 0,2 -1,1 -1,1 -2,1l-3 0 0 -11 3 0zm-1 6l0 3 1 0c0,0 0,0 0,0 0,0 1,0 1,-1l0 -1c0,0 -1,-1 -1,-1 0,0 0,0 -1,0l0 0zm0 -4l0 2 0 0c1,0 1,0 1,0 0,0 0,0 0,-1l0 0c0,-1 0,-1 0,-1 0,0 0,0 0,0l-1 0zm10 -2l-2 5 2 6 -2 0 -1 -4 -2 4 -1 0 2 -6 -2 -5 2 0 1 4 1 -4 2 0zm1 0l2 0 0 11 -2 0 0 -11zm2 9c0,0 0,0 1,0 0,0 0,0 0,0 0,0 0,0 1,0 0,0 0,0 0,-1l0 -8 5 0 0 9 1 0 0 3 -2 0 0 -1 -4 0 0 1 -2 0 0 -3zm4 -1c0,1 0,1 -1,1l3 0 0 -7 -2 0 0 6zm7 3l-2 0 0 -11 2 0 0 5 1 0 0 -5 2 0 0 11 -2 0 0 -5 -1 0 0 5zm4 -11l2 0 0 11 -2 0 0 -11zm5 9c0,0 0,0 0,0 1,0 1,0 1,0 0,0 0,0 0,0 1,0 1,0 1,-1l0 -8 5 0 0 9 1 0 0 3 -2 0 0 -1 -4 0 0 1 -2 0 0 -3zm3 -1c0,1 0,1 0,1l2 0 0 -7 -2 0 0 6zm8 -8c1,0 2,0 2,1 1,0 1,1 1,1l0 1c0,0 0,1 0,1 -1,1 -1,1 -1,1 0,0 0,1 1,1 0,0 0,1 0,1l0 1c0,1 0,2 -1,2 0,1 -1,1 -2,1l-2 0 0 -11 2 0zm-1 6l0 3 1 0c1,0 1,0 1,0 0,0 0,0 0,-1l0 -1c0,0 0,-1 0,-1 0,0 0,0 -1,0l-1 0zm0 -4l0 2 1 0c0,0 1,0 1,0 0,0 0,0 0,-1l0 0c0,-1 0,-1 0,-1 0,0 0,0 -1,0l-1 0zm7 3l2 0 0 1 -2 0 0 3 3 0 0 2 -5 0 0 -11 5 0 0 2 -3 0 0 3zm6 -5c1,0 2,0 2,1 0,0 1,1 1,2l0 1c0,1 -1,2 -1,2 0,1 -1,1 -2,1l-1 0 0 4 -1 0 0 -11 2 0zm-1 2l0 3 1 0c0,0 1,0 1,0 0,0 0,0 0,-1l0 -1c0,-1 0,-1 0,-1 0,0 -1,0 -1,0l-1 0zm4 -2l2 0 0 11 -2 0 0 -11zm-58 26c0,0 0,0 0,0 0,0 0,0 0,0 1,0 1,0 1,0 0,0 0,0 0,0 0,0 0,0 0,0 0,-1 0,-1 0,-1l-2 -8 2 0 2 6 1 -6 2 0 -2 8c-1,1 -1,1 -1,2 0,0 0,0 -1,0 0,1 0,1 0,1 -1,0 -1,0 -1,0 0,0 -1,0 -1,0 0,0 0,0 0,0l0 -2zm11 -3l0 1 0 4 -2 0 0 -11 2 0 0 5 2 -5 2 0 -3 5 3 6 -2 0 -2 -5zm7 -6c1,0 1,0 2,1 0,0 0,1 0,1l0 1c0,0 0,1 0,1 0,1 0,1 -1,1 1,0 1,0 1,1 1,0 1,1 1,1l0 1c0,1 -1,2 -1,2 0,1 -1,1 -2,1l-3 0 0 -11 3 0zm-1 6l0 3 1 0c0,0 1,0 1,0 0,0 0,0 0,-1l0 -1c0,0 0,-1 0,-1 0,0 -1,0 -1,0l-1 0zm0 -5l0 3 1 0c0,0 0,0 1,0 0,0 0,0 0,-1l0 0c0,-1 0,-1 0,-1 -1,0 -1,-1 -1,-1l-1 0zm10 10l-2 0 0 -2 -2 0 0 2 -2 0 2 -11 2 0 2 11zm-4 -4l2 0 -1 -5 -1 5zm7 -7c1,0 2,0 2,1 1,0 1,1 1,2l0 1c0,1 0,2 -1,2 0,0 -1,1 -2,1l0 0 0 4 -2 0 0 -11 2 0zm0 1l0 4 0 0c1,0 1,0 1,0 0,0 0,-1 0,-1l0 -2c0,0 0,0 0,0 0,0 0,-1 -1,-1l0 0zm3 -1l6 0 0 1 -2 0 0 10 -2 0 0 -10 -2 0 0 -1zm8 11l-2 0 0 -11 2 0 0 6 2 -6 2 0 0 11 -2 0 0 -8 -2 8zm8 -11c0,0 1,0 1,1 1,0 1,1 1,2l0 1c0,1 0,2 -1,2 0,0 -1,1 -1,1l-1 0 0 4 -2 0 0 -11 3 0zm-1 1l0 4 1 0c0,0 0,0 0,0 0,0 0,-1 0,-1l0 -2c0,0 0,0 0,0 0,0 0,-1 0,-1l-1 0zm4 8c0,0 0,0 1,0 0,0 0,0 0,0 0,0 0,0 0,0 0,0 0,0 1,0 0,0 0,0 0,0 0,-1 0,-1 0,-1l-3 -8 2 0 2 6 2 -6 1 0 -2 8c0,1 0,1 -1,2 0,0 0,0 0,0 0,1 -1,1 -1,1 0,0 -1,0 -1,0 0,0 0,0 0,0 0,0 -1,0 -1,0l0 -2z"/>
 </g>
</svg>
