<?xml version="1.0" encoding="UTF-8"?>
<!DOCTYPE svg PUBLIC "-//W3C//DTD SVG 1.1//EN" "http://www.w3.org/Graphics/SVG/1.1/DTD/svg11.dtd">
<!-- Creator: CorelDRAW X7 -->
<svg xmlns="http://www.w3.org/2000/svg" xml:space="preserve" width="357px" height="157px" version="1.1" shape-rendering="geometricPrecision" text-rendering="geometricPrecision" image-rendering="optimizeQuality" fill-rule="evenodd" clip-rule="evenodd"
viewBox="0 0 68 30"
 xmlns:xlink="http://www.w3.org/1999/xlink">
 <g id="Слой_x0020_1">
  <metadata id="CorelCorpID_0Corel-Layer"/>
  <path fill="#FEFEFE" fill-rule="nonzero" d="M4 8l1 -8 2 0 0 11 -1 0 0 -8 -1 8 -2 0 -1 -8 0 8 -2 0 0 -11 2 0 2 8zm5 -8l1 0 0 11 -1 0 0 -11zm4 11l-2 0 3 -6 -3 -5 2 0 2 5 0 -5 2 0 0 5 2 -5 2 0 -2 5 2 6 -2 0 -1 -4 -1 1 0 3 -2 0 0 -3 0 -1 -2 4zm11 -4l0 1 0 3 -2 0 0 -11 2 0 0 5 2 -5 2 0 -3 5 3 6 -2 0 -2 -4zm5 -7l1 0 0 11 -1 0 0 -11zm6 8l2 -8 2 0 0 11 -2 0 0 -8 -1 8 -2 0 -1 -8 0 8 -1 0 0 -11 2 0 1 8zm7 3l-2 0 0 -11 2 0 0 5 2 0 0 -5 2 0 0 11 -2 0 0 -5 -2 0 0 5zm11 0l-2 0 0 -2 -2 0 -1 2 -1 0 1 -11 3 0 2 11zm-4 -3l1 0 0 -6 -1 6zm4 -8l6 0 0 2 -2 0 0 9 -2 0 0 -9 -2 0 0 -2zm8 11l-2 0 0 -11 2 0 0 5 2 0 0 -5 2 0 0 11 -2 0 0 -5 -2 0 0 5zm5 -11l2 0 0 11 -2 0 0 -11zm-47 27c0,0 0,0 1,0 0,0 0,0 0,0 0,0 0,0 1,0 0,0 0,-1 0,-1l0 -9 5 0 0 10 1 0 0 3 -2 0 0 -1 -4 0 0 1 -2 0 0 -3zm4 -1c0,0 0,1 -1,1l3 0 0 -8 -2 0 0 7zm8 -9c1,0 1,1 2,1 0,1 0,1 0,2l0 0c0,1 0,1 0,2 0,0 0,0 -1,1 1,0 1,0 1,1 0,0 0,0 0,1l0 1c0,1 0,2 0,2 -1,0 -1,1 -2,1l-3 0 0 -12 3 0zm-1 7l0 3 1 0c0,0 0,0 0,0 1,0 1,-1 1,-1l0 -1c0,-1 0,-1 -1,-1 0,0 0,0 0,0l-1 0zm0 -5l0 3 0 0c1,0 1,0 1,0 0,0 1,-1 1,-1l0 -1c0,0 -1,0 -1,-1 0,0 0,0 0,0l-1 0zm6 3l3 0 0 2 -3 0 0 3 3 0 0 2 -5 0 0 -12 5 0 0 2 -3 0 0 3zm7 -5c1,0 1,1 2,1 0,1 1,1 1,2l0 2c0,1 -1,1 -1,2 -1,0 -1,0 -2,0l-1 0 0 5 -2 0 0 -12 3 0zm-1 2l0 4 1 0c0,0 0,0 1,0 0,-1 0,-1 0,-1l0 -2c0,0 0,-1 0,-1 -1,0 -1,0 -1,0l-1 0zm4 -2l2 0 0 12 -2 0 0 -12z"/>
 </g>
</svg>
