<?xml version="1.0" encoding="utf-8"?>
<!-- Generator: Adobe Illustrator 24.3.0, SVG Export Plug-In . SVG Version: 6.00 Build 0)  -->
<svg version="1.1"
	 id="Layer_1" shape-rendering="geometricPrecision" text-rendering="geometricPrecision" image-rendering="optimizeQuality"
	 xmlns="http://www.w3.org/2000/svg" xmlns:xlink="http://www.w3.org/1999/xlink" x="0px" y="0px" viewBox="0 0 357 157"
	 style="enable-background:new 0 0 357 157;" xml:space="preserve">
<style type="text/css">
	.st0{fill:#FFFFFF;}
</style>
<g>
	<path class="st0" d="M46.1,12v49H34.9l0-33.1L30.5,61h-7.9l-4.7-32.3l0,32.3H6.7V12h16.5c0.5,2.9,1,6.4,1.5,10.4l1.8,12.5L29.5,12
		H46.1z"/>
	<path class="st0" d="M63.9,12v49H51.2V12H63.9z"/>
	<path class="st0" d="M83.1,39.9c-2.7,0.1-4,1.2-4,3.5v12.9c0,1.7-0.2,2.9-0.6,3.6c-0.4,0.7-0.6,1.1-0.8,1.1H67.2
		c0.9-1.3,1.4-3.3,1.4-5.8v-11c0-2.3,0.7-4.1,2-5.4c1.3-1.2,3.5-2.1,6.7-2.6v-0.1c-5.7-0.3-8.6-3-8.6-8V17.7c0-2.6-0.5-4.5-1.4-5.8
		h10.5c0.3,0.1,0.6,0.6,0.9,1.3s0.5,1.9,0.5,3.3v12.2c0,2.2,1.3,3.4,4,3.5V12h12.8v20.3c2.7-0.1,4-1.2,4-3.5V16.6
		c0-1.7,0.2-2.9,0.5-3.6c0.4-0.7,0.6-1.1,0.8-1.1h10.5c-0.9,1.3-1.4,3.2-1.4,5.8v10.4c0,5-2.9,7.7-8.6,8v0.1
		c3.2,0.5,5.4,1.4,6.7,2.6c1.3,1.2,2,3,2,5.4v11c0,2.6,0.5,4.5,1.4,5.8h-10.5c-0.3-0.1-0.6-0.6-0.9-1.4c-0.3-0.8-0.4-1.9-0.4-3.4
		V43.4c0-2.2-1.4-3.4-4.1-3.5V61H83.1V39.9z"/>
	<path class="st0" d="M114.9,12h12.8l0.1,20.7c2.4-0.1,3.6-1.4,3.7-4l0.2-9.6c0.1-3.5,0.8-5.9,2.1-7.1h11.8
		c-1.2,1.2-1.7,3.7-1.7,7.4l0.1,8.4c0,5.1-2.8,8-8.6,8.7c5.8,0.7,8.6,3.6,8.6,8.8l-0.1,7.8c0,3.7,0.5,6.4,1.7,7.9h-11.8
		c-1.4-1.2-2.1-3.6-2.1-7.1v-9.6c0-1.2-0.4-2.2-1.1-2.9c-0.7-0.7-1.7-1.1-2.9-1.1L127.7,61h-12.8V12z"/>
	<path class="st0" d="M160.9,12v49h-12.7V12H160.9z"/>
	<path class="st0" d="M205.4,12v49h-11.1l0-33.1L189.8,61h-7.9l-4.7-32.3l0,32.3H166V12h16.5c0.5,2.9,1,6.4,1.5,10.4l1.8,12.5
		l2.9-22.9H205.4z"/>
	<path class="st0" d="M239.8,12v49H227V40.4h-3.8V61h-12.7V12h12.7v17.5h3.8V12H239.8z"/>
	<path class="st0" d="M266.9,12l7.3,49h-13l-0.7-8.8h-4.6l-0.8,8.8H242l6.5-49H266.9z M260.2,43.5c-0.6-5.6-1.3-12.4-1.9-20.6
		c-1.3,9.4-2.1,16.2-2.4,20.6H260.2z"/>
	<path class="st0" d="M302,12v9.8h-7.6V61h-12.7V21.8h-7.5V12H302z"/>
	<path class="st0" d="M334.3,12v49h-12.7V40.4h-3.8V61h-12.7V12h12.7v17.5h3.8V12H334.3z"/>
	<path class="st0" d="M352.1,12v49h-12.7V12H352.1z"/>
	<path class="st0" d="M149.2,143.8h-8.8v-8.4h-20.6v8.4H111v-18.7h2.6c1.4-4,2.5-9.3,3.4-15.8c0.9-6.5,1.3-13.7,1.3-21.5v-1.5h28.3
		v38.8h2.6V143.8z M133.8,125.1V96H130v0.4c0,9.4-1,19-3,28.7H133.8z"/>
	<path class="st0" d="M153.2,86.4h12.7c4,0,7.1,0.3,9.1,0.9c2.1,0.6,3.7,1.9,5,3.8c1.3,1.9,1.9,5,1.9,9.2c0,2.9-0.4,4.9-1.3,6
		c-0.9,1.1-2.7,2-5.3,2.6c2.9,0.7,4.9,1.8,6,3.3c1,1.5,1.6,3.9,1.6,7.1v4.5c0,3.3-0.4,5.8-1.1,7.4c-0.8,1.6-2,2.7-3.6,3.3
		c-1.7,0.6-5,0.9-10.2,0.9h-14.7V86.4z M165.9,94.8v10.9c0.5,0,1,0,1.3,0c1.3,0,2-0.3,2.4-0.9c0.3-0.6,0.5-2.4,0.5-5.3
		c0-1.5-0.1-2.6-0.4-3.2c-0.3-0.6-0.7-1-1.1-1.2C168.1,94.9,167.2,94.8,165.9,94.8z M165.9,113.3V127c1.8-0.1,2.9-0.3,3.4-0.8
		c0.5-0.5,0.7-1.7,0.7-3.7v-4.6c0-2.1-0.2-3.4-0.7-3.8C169,113.6,167.8,113.4,165.9,113.3z"/>
	<path class="st0" d="M187.4,86.4h21.3v9.8h-8.5v9.3h8v9.3h-8v10.8h9.4v9.8h-22.1V86.4z"/>
	<path class="st0" d="M213.2,86.4H226c3.5,0,6.1,0.3,8,0.8c1.9,0.5,3.3,1.3,4.2,2.4c0.9,1,1.6,2.3,1.9,3.7c0.3,1.5,0.5,3.7,0.5,6.8
		v4.3c0,3.1-0.3,5.4-1,6.8c-0.6,1.4-1.8,2.5-3.6,3.3c-1.7,0.8-4,1.2-6.8,1.2h-3.4v19.7h-12.7V86.4z M225.9,94.8v12.5
		c0.4,0,0.7,0,0.9,0c1.2,0,2-0.3,2.4-0.9c0.5-0.6,0.7-1.8,0.7-3.6v-4c0-1.7-0.3-2.8-0.8-3.3C228.6,95,227.6,94.8,225.9,94.8z"/>
	<path class="st0" d="M257,86.4v49h-12.7v-49H257z"/>
</g>
</svg>
