<?xml version="1.0" encoding="UTF-8"?>
<!DOCTYPE svg PUBLIC "-//W3C//DTD SVG 1.1//EN" "http://www.w3.org/Graphics/SVG/1.1/DTD/svg11.dtd">
<!-- Creator: CorelDRAW X7 -->
<svg xmlns="http://www.w3.org/2000/svg" xml:space="preserve" width="344px" height="335px" version="1.1" shape-rendering="geometricPrecision" text-rendering="geometricPrecision" image-rendering="optimizeQuality" fill-rule="evenodd" clip-rule="evenodd"
viewBox="0 0 63 62"
 xmlns:xlink="http://www.w3.org/1999/xlink">
 <g id="Слой_x0020_1">
  <metadata id="CorelCorpID_0Corel-Layer"/>
  <path fill="#337AB7" fill-rule="nonzero" d="M16 0c0,0 1,0 2,1 0,0 0,1 0,2l0 0c0,1 0,1 0,1 0,1 -1,1 -1,1 1,0 1,1 1,1 0,0 0,1 0,2l0 0c0,1 0,2 0,2 -1,1 -1,1 -2,1l-3 0 0 -11 3 0zm-1 6l0 3 1 0c0,0 0,0 0,0 1,0 1,0 1,-1l0 -1c0,0 0,0 -1,-1 0,0 0,0 0,0l-1 0zm0 -4l0 3 0 0c1,0 1,-1 1,-1 0,0 0,0 0,-1l0 0c0,-1 0,-1 0,-1 0,0 0,0 0,0l-1 0zm4 -2l2 0 0 11 -2 0 0 -11zm5 7l0 1 0 3 -2 0 0 -11 2 0 0 5 2 -5 2 0 -2 5 2 6 -2 0 -2 -4zm6 1c0,1 0,1 0,1 1,0 1,1 1,1 0,0 1,-1 1,-1 0,0 0,0 0,-1l0 -5c0,-1 0,-1 0,-1 0,0 -1,0 -1,0 0,0 0,0 -1,0 0,0 0,0 0,1l0 5zm-1 -5c0,-1 0,-2 0,-2 1,-1 1,-1 2,-1 1,0 2,0 2,1 0,0 1,1 1,2l0 5c0,1 -1,2 -1,2 0,1 -1,1 -2,1 -1,0 -1,0 -2,-1 0,0 0,-1 0,-2l0 -5zm7 8l-1 0 0 -11 1 0 0 5 2 0 0 -5 2 0 0 11 -2 0 0 -5 -2 0 0 5zm7 0l-2 0 0 -11 2 0 0 5 2 0 0 -5 2 0 0 11 -2 0 0 -5 -2 0 0 5zm5 -11l2 0 0 11 -2 0 0 -11zm-46 24l0 1 0 3 -2 0 0 -11 2 0 0 5 2 -5 2 0 -3 5 3 6 -2 0 -2 -4zm6 1c0,1 0,1 0,1 0,0 1,0 1,0 0,0 0,0 0,0 1,0 1,0 1,-1l0 -5c0,-1 0,-1 -1,-1 0,0 0,-1 0,-1 0,0 -1,1 -1,1 0,0 0,0 0,1l0 5zm-2 -5c0,-1 0,-2 1,-2 0,-1 1,-1 2,-1 1,0 1,0 2,1 0,0 0,1 0,2l0 5c0,1 0,2 0,2 -1,1 -1,1 -2,1 -1,0 -2,0 -2,-1 -1,0 -1,-1 -1,-2l0 -5zm8 8l-1 0 0 -11 1 0 0 5 2 0 0 -5 2 0 0 11 -2 0 0 -5 -2 0 0 5zm10 -4l0 1c0,1 0,2 -1,2 0,1 -1,1 -1,1 -1,0 -2,0 -2,-1 -1,0 -1,-1 -1,-2l0 -5c0,-1 0,-2 1,-2 0,-1 1,-1 2,-1 0,0 1,0 1,1 1,0 1,1 1,2l0 1 -2 0 0 -1c0,-1 0,-1 0,-1 0,0 0,-1 0,-1 -1,0 -1,1 -1,1 0,0 0,0 0,1l0 5c0,1 0,1 0,1 0,0 0,0 1,0 0,0 0,0 0,0 0,0 0,0 0,-1l0 -1 2 0zm1 -7l5 0 0 2 -2 0 0 9 -2 0 0 -9 -1 0 0 -2zm8 0c1,0 2,0 2,1 1,0 1,1 1,2l0 1c0,1 0,2 -1,2 0,1 -1,1 -2,1l-1 0 0 4 -1 0 0 -11 2 0zm-1 2l0 3 1 0c1,0 1,0 1,0 0,0 0,0 0,-1l0 -1c0,-1 0,-1 0,-1 0,0 0,0 -1,0l-1 0zm5 7c0,0 0,0 0,0 0,0 1,0 1,0 0,0 0,0 0,0 0,0 0,0 0,0 0,0 0,0 1,0 0,0 0,-1 0,-1l-3 -8 2 0 2 6 1 -6 2 0 -2 8c0,1 -1,1 -1,2 0,0 0,0 -1,1 0,0 0,0 0,0 -1,0 -1,0 -1,0 0,0 0,0 -1,0 0,0 0,0 0,0l0 -2zm9 -2l-1 1 0 3 -1 0 0 -11 1 0 0 5 3 -5 1 0 -2 5 2 6 -1 0 -2 -4zm6 2l2 0 0 -9 2 0 0 9 0 0 0 3 -1 0 0 -1 -5 0 0 -11 2 0 0 9zm5 -9l2 0 0 11 -2 0 0 -11zm4 0l1 0 0 11 -1 0 0 -11zm0 -2l0 1 -2 0 0 -1 2 0zm2 0l0 1 -1 0 0 -1 1 0zm-55 19l2 0 0 11 -2 0 0 -11zm10 7l0 1c0,1 0,2 0,2 -1,1 -1,1 -2,1 -1,0 -2,0 -2,-1 0,0 -1,-1 -1,-2l0 -5c0,-1 1,-2 1,-3 0,0 1,0 2,0 1,0 1,0 2,0 0,1 0,2 0,3l0 1 -1 0 0 -2c0,0 0,0 0,0 -1,-1 -1,-1 -1,-1 0,0 -1,0 -1,1 0,0 0,0 0,0l0 6c0,1 0,1 0,1 0,0 1,0 1,0 0,0 0,0 1,0 0,0 0,0 0,-1l0 -1 1 0zm3 -3l3 0 0 2 -3 0 0 3 3 0 0 2 -4 0 0 -11 4 0 0 1 -3 0 0 3zm7 -4c1,0 1,0 2,1 0,0 0,1 0,2l0 1c0,1 0,2 0,2 -1,0 -1,1 -2,1l-1 0 0 4 -2 0 0 -11 3 0zm-1 1l0 4 1 0c0,0 0,0 0,0 0,0 1,-1 1,-1l0 -2c0,0 -1,0 -1,0 0,0 0,-1 0,-1l-1 0zm7 -1c0,0 1,0 2,1 0,0 0,1 0,1l0 1c0,0 0,1 0,1 0,1 -1,1 -1,1 0,0 1,0 1,1 0,0 0,1 0,1l0 1c0,1 0,2 0,2 -1,1 -1,1 -2,1l-3 0 0 -11 3 0zm-1 6l0 3 1 0c0,0 0,0 0,0 1,0 1,0 1,-1l0 -1c0,0 0,-1 -1,-1 0,0 0,0 -1,0l0 0zm0 -5l0 3 0 0c1,0 1,0 1,0 0,0 0,0 0,-1l0 0c0,-1 0,-1 0,-1 0,0 0,-1 0,-1l-1 0zm4 -1l2 0 0 11 -2 0 0 -11zm8 7l0 1c0,1 0,2 0,2 -1,1 -2,1 -2,1 -1,0 -2,0 -2,-1 -1,0 -1,-1 -1,-2l0 -5c0,-1 0,-2 1,-3 0,0 1,0 2,0 0,0 1,0 2,0 0,1 0,2 0,3l0 1 -1 0 0 -2c0,0 -1,0 -1,0 0,-1 0,-1 0,-1 -1,0 -1,0 -1,1 0,0 0,0 0,0l0 6c0,1 0,1 0,1 0,0 0,0 1,0 0,0 0,0 0,0 0,0 1,0 1,-1l0 -1 1 0zm3 4l-2 0 0 -11 2 0 0 5 2 0 0 -5 2 0 0 11 -2 0 0 -5 -2 0 0 5zm5 -11l2 0 0 11 -2 0 0 -11zm-42 28l-2 0 0 -11 6 0 0 11 -2 0 0 -10 -2 0 0 10zm6 -3c0,1 0,1 1,1 0,0 0,0 0,0 1,0 1,0 1,0 0,0 0,0 0,-1l0 -6c0,0 0,0 0,-1 0,0 0,0 -1,0 0,0 0,0 0,0 -1,1 -1,1 -1,1l0 6zm-1 -6c0,0 0,-1 0,-2 1,0 1,0 2,0 1,0 2,0 2,0 1,1 1,2 1,2l0 6c0,1 0,2 -1,2 0,1 -1,1 -2,1 -1,0 -1,0 -2,-1 0,0 0,-1 0,-2l0 -6zm11 5l0 1c0,1 0,2 -1,2 0,1 -1,1 -2,1 0,0 -1,0 -2,-1 0,0 0,-1 0,-2l0 -6c0,0 0,-1 0,-2 1,0 2,0 2,0 1,0 2,0 2,0 1,1 1,2 1,2l0 1 -2 0 0 -1c0,0 0,0 0,-1 0,0 0,0 -1,0 0,0 0,0 0,0 0,1 0,1 0,1l0 6c0,1 0,1 0,1 0,0 0,0 0,0 1,0 1,0 1,0 0,0 0,0 0,-1l0 -1 2 0zm6 -6l-2 0 0 7c0,0 0,1 0,1 -1,1 -1,1 -1,1 0,0 0,0 -1,1 0,0 0,0 -1,0 0,0 0,0 0,0 0,0 0,0 0,0l0 -2c0,0 0,0 0,0 0,0 0,0 0,0 0,0 1,0 1,0 0,0 0,-1 0,-1l0 -8 5 0 0 11 -1 0 0 -10zm3 8c0,0 0,0 0,0 1,0 1,0 1,0 0,0 0,0 0,0 0,0 0,0 0,0 1,0 1,0 1,0 0,-1 0,-1 0,-1l-3 -8 2 0 2 6 1 -6 2 0 -2 8c0,1 -1,1 -1,1 0,1 0,1 0,1 -1,1 -1,1 -1,1 0,0 -1,0 -1,0 0,0 0,0 0,0 -1,0 -1,0 -1,0l0 -2zm9 2l-2 0 0 -11 4 0 0 1 -2 0 0 10zm5 0l-2 0 0 -11 2 0 0 6 1 -6 3 0 0 11 -2 0 0 -8 -2 8z"/>
 </g>
</svg>
