<?xml version="1.0" encoding="utf-8"?>
<!-- Generator: Adobe Illustrator 24.3.0, SVG Export Plug-In . SVG Version: 6.00 Build 0)  -->
<svg version="1.1"
	 id="Layer_1" shape-rendering="geometricPrecision" text-rendering="geometricPrecision" image-rendering="optimizeQuality"
	 xmlns="http://www.w3.org/2000/svg" xmlns:xlink="http://www.w3.org/1999/xlink" x="0px" y="0px" viewBox="0 0 344 335"
	 style="enable-background:new 0 0 344 335;" xml:space="preserve">
<style type="text/css">
	.st0{fill:#337AB7;}
</style>
<g>
	<path class="st0" d="M74.3,19.1h12.3c3.9,0,6.8,0.3,8.8,1c2,0.7,3.6,2,4.8,4c1.2,2,1.8,5.3,1.8,9.8c0,3-0.4,5.2-1.3,6.4
		c-0.9,1.2-2.6,2.1-5.1,2.8c2.9,0.7,4.8,1.9,5.8,3.5c1,1.6,1.5,4.2,1.5,7.5v4.8c0,3.5-0.4,6.1-1.1,7.8c-0.7,1.7-1.9,2.8-3.5,3.5
		c-1.6,0.6-4.9,0.9-9.8,0.9H74.3V19.1z M86.7,28v11.6c0.5,0,0.9,0,1.2,0c1.2,0,2-0.3,2.3-1c0.3-0.7,0.5-2.5,0.5-5.6
		c0-1.6-0.1-2.8-0.4-3.4c-0.3-0.7-0.6-1.1-1.1-1.2C88.8,28.1,87.9,28,86.7,28z M86.7,47.7v14.5c1.7-0.1,2.8-0.4,3.3-0.9
		c0.5-0.5,0.7-1.9,0.7-4v-4.8c0-2.2-0.2-3.6-0.6-4C89.6,48,88.5,47.7,86.7,47.7z"/>
	<path class="st0" d="M119.8,19.1v52h-12.3v-52H119.8z"/>
	<path class="st0" d="M124.7,19.1h12.4l0.1,22c2.3-0.1,3.5-1.5,3.6-4.2l0.2-10.1c0.1-3.7,0.7-6.3,2-7.6h11.4
		c-1.1,1.3-1.7,3.9-1.6,7.8l0.1,8.9c0,5.4-2.7,8.5-8.3,9.2c5.6,0.7,8.4,3.9,8.3,9.3l-0.1,8.3c0,3.9,0.5,6.7,1.6,8.4H143
		c-1.3-1.3-2-3.8-2-7.6V53.4c0-1.3-0.4-2.3-1.1-3.1c-0.7-0.8-1.6-1.2-2.8-1.2l-0.1,22h-12.4V19.1z"/>
	<path class="st0" d="M185.1,49.6c0,5.2-0.1,8.9-0.3,11.1c-0.2,2.2-0.9,4.2-2.1,6c-1.2,1.8-2.8,3.2-4.8,4.1s-4.4,1.4-7,1.4
		c-2.5,0-4.8-0.5-6.8-1.4s-3.6-2.3-4.9-4.1c-1.2-1.8-2-3.8-2.2-5.9c-0.2-2.1-0.4-5.9-0.4-11.2v-8.9c0-5.2,0.1-8.9,0.3-11.1
		c0.2-2.2,0.9-4.2,2.1-6c1.2-1.8,2.8-3.2,4.8-4.1c2-1,4.4-1.4,7-1.4c2.5,0,4.8,0.5,6.8,1.4c2,0.9,3.6,2.3,4.9,4.1
		c1.2,1.8,2,3.8,2.2,5.9c0.2,2.1,0.4,5.9,0.4,11.2V49.6z M172.8,32.5c0-2.4-0.1-4-0.4-4.6c-0.2-0.7-0.7-1-1.5-1
		c-0.6,0-1.1,0.3-1.5,0.8c-0.3,0.5-0.5,2.2-0.5,4.8v24.3c0,3,0.1,4.9,0.3,5.6c0.2,0.7,0.7,1.1,1.6,1.1c0.8,0,1.4-0.4,1.6-1.2
		c0.2-0.8,0.4-2.8,0.4-5.8V32.5z"/>
	<path class="st0" d="M218.1,19.1v52h-12.3V49.3H202v21.8h-12.3v-52H202v18.6h3.7V19.1H218.1z"/>
	<path class="st0" d="M251.4,19.1v52H239V49.3h-3.7v21.8H223v-52h12.3v18.6h3.7V19.1H251.4z"/>
	<path class="st0" d="M268.6,19.1v52h-12.3v-52H268.6z"/>
	<path class="st0" d="M15.4,98h12.4l0.1,22c2.3-0.1,3.5-1.5,3.6-4.2l0.2-10.1c0.1-3.7,0.7-6.3,2-7.6h11.4c-1.1,1.3-1.7,3.9-1.6,7.8
		l0.1,8.9c0,5.4-2.7,8.5-8.3,9.2c5.6,0.7,8.4,3.9,8.3,9.3l-0.1,8.3c0,3.9,0.5,6.7,1.6,8.4H33.7c-1.3-1.3-2-3.8-2-7.6v-10.1
		c0-1.3-0.4-2.3-1.1-3.1c-0.7-0.8-1.6-1.2-2.8-1.2l-0.1,22H15.4V98z"/>
	<path class="st0" d="M75.8,128.5c0,5.2-0.1,8.9-0.3,11.1c-0.2,2.2-0.9,4.2-2.1,6c-1.2,1.8-2.8,3.2-4.8,4.1c-2,1-4.4,1.4-7,1.4
		c-2.5,0-4.8-0.5-6.8-1.4c-2-0.9-3.6-2.3-4.9-4.1c-1.2-1.8-2-3.8-2.2-5.9c-0.2-2.1-0.4-5.9-0.4-11.2v-8.9c0-5.2,0.1-8.9,0.3-11.1
		c0.2-2.2,0.9-4.2,2.1-6c1.2-1.8,2.8-3.2,4.8-4.1c2-1,4.4-1.4,7-1.4c2.5,0,4.8,0.5,6.8,1.4c2,0.9,3.6,2.3,4.9,4.1
		c1.2,1.8,2,3.8,2.2,5.9c0.2,2.1,0.4,5.9,0.4,11.2V128.5z M63.4,111.4c0-2.4-0.1-4-0.4-4.6c-0.2-0.7-0.7-1-1.5-1
		c-0.6,0-1.1,0.3-1.5,0.8c-0.3,0.5-0.5,2.2-0.5,4.8v24.3c0,3,0.1,4.9,0.3,5.6c0.2,0.7,0.7,1.1,1.6,1.1c0.8,0,1.4-0.4,1.6-1.2
		c0.2-0.8,0.4-2.8,0.4-5.8V111.4z"/>
	<path class="st0" d="M108.7,98.1v52H96.4v-21.8h-3.7V150H80.4v-52h12.3v18.6h3.7V98.1H108.7z"/>
	<path class="st0" d="M142.5,120.7h-12.3v-9c0-2.6-0.1-4.3-0.4-4.9c-0.3-0.7-0.8-1-1.7-1c-1,0-1.7,0.4-1.9,1.2
		c-0.3,0.8-0.4,2.5-0.4,5.1v24.2c0,2.5,0.1,4.2,0.4,4.9c0.3,0.8,0.9,1.2,1.8,1.2c0.9,0,1.5-0.4,1.8-1.2c0.3-0.8,0.4-2.6,0.4-5.4
		v-6.5h12.3v2c0,5.4-0.3,9.2-1,11.5c-0.7,2.3-2.2,4.2-4.6,5.9s-5.3,2.5-8.8,2.5c-3.6,0-6.6-0.7-8.9-2.2s-3.9-3.4-4.7-6
		s-1.1-6.4-1.1-11.4v-15.2c0-3.7,0.1-6.6,0.4-8.4c0.2-1.9,0.9-3.7,2.1-5.4c1.2-1.7,2.8-3.1,4.8-4.1c2.1-1,4.4-1.5,7.1-1.5
		c3.6,0,6.6,0.8,9,2.3c2.4,1.5,3.9,3.5,4.7,5.8c0.7,2.3,1.1,5.9,1.1,10.7V120.7z"/>
	<path class="st0" d="M171.7,98.1v10.4h-7.3V150h-12.3v-41.6h-7.3V98.1H171.7z"/>
	<path class="st0" d="M174.6,98.1H187c3.4,0,5.9,0.3,7.7,0.9c1.8,0.6,3.2,1.4,4.1,2.5c0.9,1.1,1.5,2.4,1.8,4c0.3,1.6,0.5,4,0.5,7.2
		v4.5c0,3.3-0.3,5.7-0.9,7.3c-0.6,1.5-1.8,2.7-3.4,3.5c-1.7,0.8-3.9,1.2-6.5,1.2h-3.3V150h-12.3V98.1z M186.9,106.9v13.2
		c0.4,0,0.7,0,0.9,0c1.1,0,1.9-0.3,2.4-0.9s0.7-1.9,0.7-3.8v-4.3c0-1.8-0.3-2.9-0.8-3.5C189.6,107.2,188.5,106.9,186.9,106.9z"/>
	<path class="st0" d="M229.1,98l-3.4,34.5c-0.5,5.4-1.1,9.3-1.7,11.4c-0.6,2.2-1.8,3.8-3.5,4.7c-1.7,0.9-4.6,1.4-8.6,1.4h-7.2v-6.7
		h0.7c1.6,0,2.6-0.1,3-0.4c0.4-0.3,0.6-0.7,0.6-1.3c0,0-0.2-1.5-0.7-4.4L201.9,98h10.7l3.9,32.4l1.9-32.4H229.1z"/>
	<path class="st0" d="M231.6,98h12.4l0.1,22c2.3-0.1,3.5-1.5,3.6-4.2l0.2-10.1c0.1-3.7,0.7-6.3,2-7.6h11.4c-1.1,1.3-1.7,3.9-1.6,7.8
		l0.1,8.9c0,5.4-2.7,8.5-8.3,9.2c5.6,0.7,8.4,3.9,8.3,9.3l-0.1,8.3c0,3.9,0.5,6.7,1.6,8.4h-11.4c-1.3-1.3-2-3.8-2-7.6v-10.1
		c0-1.3-0.4-2.3-1.1-3.1c-0.7-0.8-1.6-1.2-2.8-1.2l-0.1,22h-12.4V98z"/>
	<path class="st0" d="M294.6,159h-8.5v-9h-22.4V98h12.4v41.6h3.7V98h12.4v41.6h2.5V159z"/>
	<path class="st0" d="M310.3,98.1v52h-12.3v-52H310.3z"/>
	<path class="st0" d="M318.8,88.1v8.4h-7.6v-8.4H318.8z M327.5,98.1v52h-12.3v-52H327.5z M331.6,88.1v8.4h-7.6v-8.4H331.6z"/>
	<path class="st0" d="M61.1,177v52H48.8v-52H61.1z"/>
	<path class="st0" d="M105.4,199.6H93.1v-9c0-2.6-0.1-4.3-0.4-4.9s-0.8-1-1.7-1c-1,0-1.7,0.4-1.9,1.2c-0.3,0.8-0.4,2.5-0.4,5.1v24.2
		c0,2.5,0.1,4.2,0.4,4.9c0.3,0.8,0.9,1.2,1.8,1.2c0.9,0,1.5-0.4,1.8-1.2c0.3-0.8,0.4-2.6,0.4-5.4v-6.5h12.3v2c0,5.4-0.3,9.2-1,11.4
		c-0.7,2.3-2.2,4.2-4.6,5.9c-2.4,1.7-5.3,2.5-8.8,2.5c-3.6,0-6.6-0.7-8.9-2.2c-2.3-1.4-3.9-3.4-4.7-6s-1.1-6.4-1.1-11.4v-15.2
		c0-3.7,0.1-6.6,0.4-8.4c0.2-1.9,0.9-3.7,2.1-5.4c1.2-1.7,2.8-3.1,4.8-4.1c2.1-1,4.4-1.5,7.1-1.5c3.6,0,6.6,0.8,9,2.3
		c2.4,1.5,3.9,3.5,4.7,5.8c0.7,2.3,1.1,5.9,1.1,10.7V199.6z"/>
	<path class="st0" d="M109.9,177h20.6v10.4h-8.2v9.9h7.7v9.9h-7.7v11.4h9.1V229h-21.4V177z"/>
	<path class="st0" d="M134.8,177h12.4c3.4,0,5.9,0.3,7.7,0.9c1.8,0.6,3.2,1.4,4.1,2.5c0.9,1.1,1.5,2.4,1.8,4c0.3,1.6,0.5,4,0.5,7.2
		v4.5c0,3.3-0.3,5.7-0.9,7.3c-0.6,1.5-1.8,2.7-3.4,3.5s-3.9,1.2-6.5,1.2h-3.3V229h-12.3V177z M147.1,185.9v13.2c0.4,0,0.7,0,0.9,0
		c1.1,0,1.9-0.3,2.4-0.9s0.7-1.9,0.7-3.8v-4.3c0-1.8-0.3-2.9-0.8-3.5C149.8,186.1,148.7,185.9,147.1,185.9z"/>
	<path class="st0" d="M164.9,177h12.3c3.9,0,6.8,0.3,8.8,1c2,0.7,3.6,2,4.8,4c1.2,2,1.8,5.3,1.8,9.8c0,3-0.4,5.2-1.3,6.4
		c-0.9,1.2-2.6,2.1-5.1,2.8c2.9,0.7,4.8,1.9,5.8,3.5c1,1.6,1.5,4.2,1.5,7.5v4.8c0,3.5-0.4,6.1-1.1,7.8s-1.9,2.8-3.5,3.5
		c-1.6,0.6-4.9,0.9-9.8,0.9h-14.3V177z M177.2,185.9v11.6c0.5,0,0.9,0,1.2,0c1.2,0,2-0.3,2.3-1c0.3-0.7,0.5-2.5,0.5-5.6
		c0-1.6-0.1-2.8-0.4-3.4c-0.3-0.7-0.6-1.1-1.1-1.2C179.4,186,178.5,185.9,177.2,185.9z M177.2,205.5v14.5c1.7-0.1,2.8-0.4,3.3-0.9
		c0.5-0.5,0.7-1.9,0.7-4v-4.8c0-2.2-0.2-3.6-0.6-4C180.2,205.9,179.1,205.6,177.2,205.5z"/>
	<path class="st0" d="M210.4,177v52H198v-52H210.4z"/>
	<path class="st0" d="M244.1,199.6h-12.3v-9c0-2.6-0.1-4.3-0.4-4.9s-0.8-1-1.7-1c-1,0-1.7,0.4-1.9,1.2s-0.4,2.5-0.4,5.1v24.2
		c0,2.5,0.1,4.2,0.4,4.9s0.9,1.2,1.8,1.2c0.9,0,1.5-0.4,1.8-1.2c0.3-0.8,0.4-2.6,0.4-5.4v-6.5h12.3v2c0,5.4-0.3,9.2-1,11.4
		c-0.7,2.3-2.2,4.2-4.6,5.9c-2.4,1.7-5.3,2.5-8.8,2.5c-3.6,0-6.6-0.7-8.9-2.2c-2.3-1.4-3.9-3.4-4.7-6s-1.1-6.4-1.1-11.4v-15.2
		c0-3.7,0.1-6.6,0.4-8.4c0.2-1.9,0.9-3.7,2.1-5.4c1.2-1.7,2.8-3.1,4.8-4.1c2.1-1,4.4-1.5,7.1-1.5c3.6,0,6.6,0.8,9,2.3
		c2.4,1.5,3.9,3.5,4.7,5.8c0.7,2.3,1.1,5.9,1.1,10.7V199.6z"/>
	<path class="st0" d="M276.9,177v52h-12.3v-21.8h-3.7V229h-12.3v-52h12.3v18.6h3.7V177H276.9z"/>
	<path class="st0" d="M294.2,177v52h-12.3v-52H294.2z"/>
	<path class="st0" d="M93.1,307.9H80.8v-41.6h-3.7v41.6H64.7v-52h28.4V307.9z"/>
	<path class="st0" d="M126.2,286.4c0,5.2-0.1,8.9-0.3,11.1c-0.2,2.2-0.9,4.2-2.1,6c-1.2,1.8-2.8,3.2-4.8,4.1c-2,1-4.4,1.4-7,1.4
		c-2.5,0-4.8-0.5-6.8-1.4c-2-0.9-3.6-2.3-4.9-4.1c-1.2-1.8-2-3.8-2.2-5.9c-0.2-2.1-0.4-5.9-0.4-11.2v-8.9c0-5.2,0.1-8.9,0.3-11.1
		c0.2-2.2,0.9-4.2,2.1-6c1.2-1.8,2.8-3.2,4.8-4.1c2-1,4.4-1.4,7-1.4c2.5,0,4.8,0.5,6.8,1.4c2,0.9,3.6,2.3,4.9,4.1
		c1.2,1.8,2,3.8,2.2,5.9c0.2,2.1,0.4,5.9,0.4,11.2V286.4z M113.9,269.3c0-2.4-0.1-4-0.4-4.6c-0.2-0.7-0.7-1-1.5-1
		c-0.6,0-1.1,0.3-1.5,0.8c-0.3,0.5-0.5,2.2-0.5,4.8v24.3c0,3,0.1,4.9,0.3,5.6c0.2,0.7,0.7,1.1,1.6,1.1c0.8,0,1.4-0.4,1.6-1.2
		c0.2-0.8,0.4-2.8,0.4-5.8V269.3z"/>
	<path class="st0" d="M159.6,278.6h-12.3v-9c0-2.6-0.1-4.3-0.4-4.9c-0.3-0.7-0.8-1-1.7-1c-1,0-1.7,0.4-1.9,1.2
		c-0.3,0.8-0.4,2.5-0.4,5.1v24.2c0,2.5,0.1,4.2,0.4,4.9c0.3,0.8,0.9,1.2,1.8,1.2c0.9,0,1.5-0.4,1.8-1.2c0.3-0.8,0.4-2.6,0.4-5.4
		v-6.5h12.3v2c0,5.4-0.3,9.2-1,11.4c-0.7,2.3-2.2,4.2-4.6,5.9c-2.4,1.7-5.3,2.5-8.8,2.5c-3.6,0-6.6-0.7-8.9-2.2s-3.9-3.4-4.7-6
		s-1.1-6.4-1.1-11.4v-15.2c0-3.7,0.1-6.6,0.4-8.4c0.2-1.9,0.9-3.7,2.1-5.4c1.2-1.7,2.8-3.1,4.8-4.1c2.1-1,4.4-1.5,7.1-1.5
		c3.6,0,6.6,0.8,9,2.3c2.4,1.5,3.9,3.5,4.7,5.8c0.7,2.3,1.1,5.9,1.1,10.7V278.6z"/>
	<path class="st0" d="M194.2,307.9h-12.4v-41.6h-3.6v29.5c0,3.9-0.5,6.7-1.4,8.4c-0.9,1.7-2.3,2.8-4.1,3.2c-1.9,0.4-4.8,0.6-8.9,0.6
		h-1.9v-9c1.5,0,2.5-0.2,3.1-0.6c0.6-0.4,0.8-1.8,0.8-4.2v-38.3h28.3V307.9z"/>
	<path class="st0" d="M223.5,255.9l-3.4,34.5c-0.5,5.4-1.1,9.3-1.7,11.4c-0.6,2.2-1.8,3.8-3.5,4.7c-1.7,0.9-4.6,1.4-8.6,1.4h-7.2
		v-6.7h0.7c1.6,0,2.6-0.1,3-0.4c0.4-0.3,0.6-0.7,0.6-1.3c0,0-0.2-1.5-0.7-4.4l-6.5-39.1H207l3.9,32.4l1.9-32.4H223.5z"/>
	<path class="st0" d="M247.4,266.3h-9.1v41.6H226v-52h21.4V266.3z"/>
	<path class="st0" d="M278.3,307.9h-10.3v-23.7l-6.4,23.7h-10.8v-52H261v23.5l6.9-23.5h10.3V307.9z"/>
</g>
</svg>
