<?xml version="1.0" encoding="utf-8"?>
<!-- Generator: Adobe Illustrator 24.3.0, SVG Export Plug-In . SVG Version: 6.00 Build 0)  -->
<svg version="1.1"
	 id="Layer_1" shape-rendering="geometricPrecision" text-rendering="geometricPrecision" image-rendering="optimizeQuality"
	 xmlns="http://www.w3.org/2000/svg" xmlns:xlink="http://www.w3.org/1999/xlink" x="0px" y="0px" viewBox="0 0 549 207"
	 style="enable-background:new 0 0 549 207;" xml:space="preserve">
<style type="text/css">
	.st0{fill:#337AB7;}
</style>
<g>
	<path class="st0" d="M49.7,31.5v26c0,5.9-0.3,10.2-0.9,12.9c-0.6,2.7-1.9,5.2-3.8,7.6c-1.9,2.3-4.2,4-6.9,5.1c-2.7,1-5.7,1.5-9,1.5
		c-4.4,0-8-0.5-10.9-1.6s-5.2-2.8-6.9-5c-1.7-2.3-2.9-4.7-3.7-7.2c-0.7-2.5-1.1-6.5-1.1-12V31.5c0-7.2,0.6-12.5,1.7-16.1
		c1.2-3.6,3.5-6.4,6.9-8.6c3.5-2.2,7.6-3.2,12.6-3.2c4,0,7.6,0.7,10.8,2.2s5.5,3.3,7.1,5.5c1.6,2.2,2.6,4.6,3.2,7.3
		C49.5,21.2,49.7,25.5,49.7,31.5z M31.5,24.9c0-4.1-0.2-6.7-0.6-7.8c-0.4-1-1.3-1.6-2.6-1.6c-1.4,0-2.3,0.6-2.7,1.7
		c-0.4,1.1-0.7,3.7-0.7,7.7V63c0,4.5,0.2,7.3,0.6,8.2c0.4,0.9,1.3,1.4,2.6,1.4s2.2-0.5,2.7-1.6c0.4-1.1,0.6-3.6,0.6-7.4V24.9z"/>
	<path class="st0" d="M96.2,5v12.5H73.5v13.3c2.8-3.6,6.5-5.4,10.9-5.4c5,0,8.8,1.5,11.4,4.5c2.6,3,3.9,8.8,3.9,17.3v11.1
		c0,5.5-0.2,9.6-0.7,12.2c-0.5,2.6-1.6,5-3.2,7.2c-1.6,2.2-3.9,3.9-6.8,5.1c-2.9,1.2-6.5,1.8-10.7,1.8c-4.7,0-8.8-0.9-12.4-2.6
		c-3.6-1.8-6.1-4.4-7.6-7.8C56.8,70.7,56,65.3,56,58v-4.2h18.3v4.9c0,5,0.2,8.6,0.5,10.7c0.3,2.1,1.5,3.2,3.4,3.2
		c0.9,0,1.6-0.3,2.2-0.9c0.6-0.6,0.9-1.3,0.9-2c0-0.7,0.1-3.8,0.2-9.2V45c0-2.9-0.3-4.9-0.9-6c-0.6-1.1-1.5-1.6-2.8-1.6
		c-0.8,0-1.6,0.3-2.1,0.8c-0.6,0.5-0.9,1.1-1.1,1.8c-0.2,0.6-0.2,2.1-0.2,4.4H56.2L57,5H96.2z"/>
	<path class="st0" d="M149.1,31.5v26c0,5.9-0.3,10.2-0.9,12.9c-0.6,2.7-1.9,5.2-3.8,7.6c-1.9,2.3-4.2,4-6.9,5.1
		c-2.7,1-5.7,1.5-9,1.5c-4.4,0-8-0.5-10.9-1.6c-2.9-1.1-5.2-2.8-6.9-5c-1.7-2.3-2.9-4.7-3.7-7.2c-0.7-2.5-1.1-6.5-1.1-12V31.5
		c0-7.2,0.6-12.5,1.7-16.1c1.2-3.6,3.5-6.4,6.9-8.6c3.5-2.2,7.6-3.2,12.6-3.2c4,0,7.6,0.7,10.8,2.2s5.5,3.3,7.1,5.5
		c1.6,2.2,2.6,4.6,3.2,7.3C148.8,21.2,149.1,25.5,149.1,31.5z M130.8,24.9c0-4.1-0.2-6.7-0.6-7.8c-0.4-1-1.3-1.6-2.6-1.6
		c-1.4,0-2.3,0.6-2.7,1.7c-0.4,1.1-0.7,3.7-0.7,7.7V63c0,4.5,0.2,7.3,0.6,8.2c0.4,0.9,1.3,1.4,2.6,1.4c1.4,0,2.2-0.5,2.7-1.6
		c0.4-1.1,0.6-3.6,0.6-7.4V24.9z"/>
	<path class="st0" d="M215.1,31.5v26c0,5.9-0.3,10.2-0.9,12.9c-0.6,2.7-1.9,5.2-3.8,7.6c-1.9,2.3-4.2,4-6.9,5.1
		c-2.7,1-5.7,1.5-9,1.5c-4.4,0-8-0.5-10.9-1.6s-5.2-2.8-6.9-5c-1.7-2.3-2.9-4.7-3.7-7.2c-0.7-2.5-1.1-6.5-1.1-12V31.5
		c0-7.2,0.6-12.5,1.7-16.1c1.2-3.6,3.5-6.4,6.9-8.6c3.5-2.2,7.6-3.2,12.6-3.2c4,0,7.6,0.7,10.8,2.2s5.5,3.3,7.1,5.5
		c1.6,2.2,2.6,4.6,3.2,7.3C214.8,21.2,215.1,25.5,215.1,31.5z M196.8,24.9c0-4.1-0.2-6.7-0.6-7.8c-0.4-1-1.3-1.6-2.6-1.6
		c-1.4,0-2.3,0.6-2.7,1.7c-0.4,1.1-0.7,3.7-0.7,7.7V63c0,4.5,0.2,7.3,0.6,8.2c0.4,0.9,1.3,1.4,2.6,1.4c1.4,0,2.2-0.5,2.7-1.6
		c0.4-1.1,0.6-3.6,0.6-7.4V24.9z"/>
	<path class="st0" d="M253.8,5v17l-11.7,61H224l13-64h-18.1V5H253.8z"/>
	<path class="st0" d="M291.8,5v17l-11.7,61h-18.2l13-64h-18.1V5H291.8z"/>
	<path class="st0" d="M318.3,44.4v13.4h-24V44.4H318.3z"/>
	<path class="st0" d="M363,5v12.5h-22.7v13.3c2.8-3.6,6.5-5.4,10.9-5.4c5,0,8.8,1.5,11.4,4.5c2.6,3,3.9,8.8,3.9,17.3v11.1
		c0,5.5-0.2,9.6-0.7,12.2c-0.5,2.6-1.6,5-3.2,7.2c-1.6,2.2-3.9,3.9-6.8,5.1c-2.9,1.2-6.5,1.8-10.7,1.8c-4.7,0-8.9-0.9-12.4-2.6
		c-3.6-1.8-6.1-4.4-7.6-7.8c-1.5-3.5-2.3-8.8-2.3-16.1v-4.2h18.3v4.9c0,5,0.2,8.6,0.5,10.7c0.3,2.1,1.5,3.2,3.4,3.2
		c0.9,0,1.6-0.3,2.2-0.9c0.6-0.6,0.9-1.3,0.9-2c0-0.7,0.1-3.8,0.2-9.2V45c0-2.9-0.3-4.9-0.9-6c-0.6-1.1-1.5-1.6-2.8-1.6
		c-0.8,0-1.6,0.3-2.1,0.8c-0.6,0.5-0.9,1.1-1.1,1.8c-0.2,0.6-0.2,2.1-0.2,4.4H323L323.8,5H363z"/>
	<path class="st0" d="M407.7,38.8c2.7,1.2,4.7,2.9,6.2,5.2c1.4,2.3,2.2,7.8,2.2,16.4c0,6.3-0.6,10.9-1.7,13.9
		c-1.1,3-3.4,5.4-6.7,7.4c-3.3,1.9-7.8,2.9-13.3,2.9c-5.4,0-9.7-0.9-12.9-2.7c-3.2-1.8-5.4-4.3-6.8-7.3c-1.4-3-2.1-8.1-2.1-15.1
		c0-4.7,0.3-8.8,1-12.3c0.7-3.5,2.8-6.3,6.4-8.3c-2.3-1.2-4-3-5.1-5.5c-1.1-2.5-1.7-5.7-1.7-9.6c0-6.7,1.7-11.7,5.2-15.1
		c3.5-3.4,8.7-5,15.7-5c8.1,0,13.6,1.8,16.7,5.3c3.1,3.6,4.6,8.7,4.6,15.3c0,4.2-0.5,7.2-1.5,9.1C412.9,35.1,410.8,37,407.7,38.8z
		 M397.8,54.5c0-3-0.3-5-0.9-6c-0.6-1-1.5-1.5-2.7-1.5c-1.2,0-2.1,0.5-2.6,1.4c-0.5,0.9-0.8,2.9-0.8,6v10.1c0,3.4,0.3,5.5,0.9,6.5
		c0.6,1,1.5,1.4,2.8,1.4c1.3,0,2.2-0.5,2.6-1.5c0.5-1,0.7-3.2,0.7-6.6V54.5z M397.4,22.1c0-2.6-0.2-4.4-0.7-5.2
		c-0.4-0.9-1.3-1.3-2.5-1.3c-1.2,0-2,0.5-2.4,1.4c-0.4,0.9-0.6,2.6-0.6,5.1V28c0,2.3,0.2,4,0.7,4.9c0.5,0.9,1.3,1.3,2.4,1.3
		c1.2,0,2-0.4,2.4-1.3c0.4-0.9,0.6-2.7,0.6-5.5V22.1z"/>
	<path class="st0" d="M444.8,44.4v13.4h-24V44.4H444.8z"/>
	<path class="st0" d="M484.5,38.8c2.7,1.2,4.7,2.9,6.2,5.2c1.4,2.3,2.2,7.8,2.2,16.4c0,6.3-0.6,10.9-1.7,13.9
		c-1.1,3-3.4,5.4-6.7,7.4c-3.3,1.9-7.8,2.9-13.3,2.9c-5.4,0-9.7-0.9-12.9-2.7c-3.2-1.8-5.4-4.3-6.8-7.3c-1.4-3-2.1-8.1-2.1-15.1
		c0-4.7,0.3-8.8,1-12.3c0.7-3.5,2.8-6.3,6.4-8.3c-2.3-1.2-4-3-5.1-5.5c-1.1-2.5-1.7-5.7-1.7-9.6c0-6.7,1.7-11.7,5.2-15.1
		c3.5-3.4,8.7-5,15.7-5c8.1,0,13.6,1.8,16.7,5.3c3.1,3.6,4.6,8.7,4.6,15.3c0,4.2-0.5,7.2-1.5,9.1C489.7,35.1,487.6,37,484.5,38.8z
		 M474.6,54.5c0-3-0.3-5-0.9-6c-0.6-1-1.5-1.5-2.7-1.5c-1.2,0-2.1,0.5-2.6,1.4c-0.5,0.9-0.8,2.9-0.8,6v10.1c0,3.4,0.3,5.5,0.9,6.5
		c0.6,1,1.5,1.4,2.8,1.4c1.3,0,2.2-0.5,2.6-1.5c0.5-1,0.7-3.2,0.7-6.6V54.5z M474.2,22.1c0-2.6-0.2-4.4-0.7-5.2
		c-0.4-0.9-1.3-1.3-2.5-1.3c-1.2,0-2,0.5-2.4,1.4c-0.4,0.9-0.6,2.6-0.6,5.1V28c0,2.3,0.2,4,0.7,4.9c0.5,0.9,1.3,1.3,2.4,1.3
		c1.2,0,2-0.4,2.4-1.3c0.4-0.9,0.6-2.7,0.6-5.5V22.1z"/>
	<path class="st0" d="M539.1,5v12.5h-22.7v13.3c2.8-3.6,6.5-5.4,10.9-5.4c5,0,8.8,1.5,11.4,4.5c2.6,3,3.9,8.8,3.9,17.3v11.1
		c0,5.5-0.2,9.6-0.7,12.2c-0.5,2.6-1.6,5-3.2,7.2c-1.6,2.2-3.9,3.9-6.8,5.1c-2.9,1.2-6.5,1.8-10.7,1.8c-4.7,0-8.9-0.9-12.4-2.6
		c-3.6-1.8-6.1-4.4-7.6-7.8c-1.5-3.5-2.3-8.8-2.3-16.1v-4.2h18.3v4.9c0,5,0.2,8.6,0.5,10.7c0.3,2.1,1.5,3.2,3.4,3.2
		c0.9,0,1.6-0.3,2.2-0.9c0.6-0.6,0.9-1.3,0.9-2c0-0.7,0.1-3.8,0.2-9.2V45c0-2.9-0.3-4.9-0.9-6c-0.6-1.1-1.5-1.6-2.8-1.6
		c-0.8,0-1.6,0.3-2.1,0.8c-0.6,0.5-0.9,1.1-1.1,1.8c-0.2,0.6-0.2,2.1-0.2,4.4h-18.1L499.8,5H539.1z"/>
	<path class="st0" d="M56.8,149.9v26c0,5.9-0.3,10.2-0.9,12.9c-0.6,2.7-1.9,5.2-3.8,7.6c-1.9,2.3-4.2,4-6.9,5.1
		c-2.7,1-5.7,1.5-9,1.5c-4.4,0-8-0.5-10.9-1.6c-2.9-1.1-5.2-2.8-6.9-5c-1.7-2.3-2.9-4.7-3.7-7.2c-0.7-2.5-1.1-6.5-1.1-12v-27.2
		c0-7.2,0.6-12.5,1.7-16.1c1.2-3.6,3.5-6.4,6.9-8.6c3.5-2.2,7.6-3.2,12.6-3.2c4,0,7.6,0.7,10.8,2.2c3.2,1.5,5.5,3.3,7.1,5.5
		c1.6,2.2,2.6,4.6,3.2,7.3C56.5,139.7,56.8,144,56.8,149.9z M38.5,143.4c0-4.1-0.2-6.7-0.6-7.8c-0.4-1-1.3-1.6-2.6-1.6
		c-1.4,0-2.3,0.6-2.7,1.7c-0.4,1.1-0.7,3.7-0.7,7.7v38.1c0,4.5,0.2,7.3,0.6,8.2c0.4,0.9,1.3,1.4,2.6,1.4c1.4,0,2.2-0.5,2.7-1.6
		c0.4-1.1,0.6-3.6,0.6-7.4V143.4z"/>
	<path class="st0" d="M107.2,144.2H89c0-3.6,0-5.9-0.1-6.9c-0.1-0.9-0.4-1.7-1.1-2.4c-0.6-0.6-1.5-1-2.6-1c-0.9,0-1.7,0.3-2.3,0.9
		c-0.6,0.6-0.9,1.4-1,2.4c-0.1,1-0.1,2.9-0.1,5.8v12.4c0.9-2.1,2.3-3.7,4.1-4.7c1.8-1,4-1.6,6.7-1.6c3.3,0,6.3,1,8.9,2.9
		c2.6,1.9,4.2,4.2,4.9,6.9c0.7,2.7,1,6.3,1,10.9v6.2c0,5.5-0.2,9.5-0.6,12.2c-0.4,2.7-1.4,5.1-3.1,7.4c-1.7,2.3-4,4-7,5.3
		c-3,1.3-6.4,1.9-10.4,1.9c-4.9,0-8.9-0.7-12.1-2.2c-3.1-1.4-5.6-3.5-7.3-6.2c-1.7-2.7-2.7-5.6-3-8.6c-0.3-3-0.4-8.8-0.4-17.4v-10.8
		c0-9.3,0.1-15.5,0.4-18.6c0.3-3.1,1.3-6.1,3.1-8.9c1.8-2.8,4.3-4.9,7.5-6.3c3.2-1.4,6.9-2.1,11-2.1c5.1,0,9.3,0.9,12.6,2.7
		c3.3,1.8,5.6,4.3,7.1,7.5C106.5,135.3,107.2,139.4,107.2,144.2z M89,168.6c0-2.8-0.3-4.7-0.9-5.7c-0.6-1-1.5-1.5-2.8-1.5
		c-1.3,0-2.2,0.5-2.8,1.5c-0.6,1-0.9,2.9-0.9,5.8v14.1c0,3.4,0.3,5.7,0.8,6.7c0.6,1.1,1.5,1.6,2.8,1.6c0.8,0,1.6-0.4,2.4-1.2
		c0.8-0.8,1.3-3,1.3-6.6V168.6z"/>
	<path class="st0" d="M144.5,123.5v17l-11.7,61h-18.2l13-64h-18.1v-14H144.5z"/>
	<path class="st0" d="M208,149.9v26c0,5.9-0.3,10.2-0.9,12.9c-0.6,2.7-1.9,5.2-3.8,7.6c-1.9,2.3-4.2,4-6.9,5.1c-2.7,1-5.7,1.5-9,1.5
		c-4.4,0-8-0.5-10.9-1.6c-2.9-1.1-5.2-2.8-6.9-5c-1.7-2.3-2.9-4.7-3.7-7.2c-0.7-2.5-1.1-6.5-1.1-12v-27.2c0-7.2,0.6-12.5,1.7-16.1
		c1.2-3.6,3.5-6.4,6.9-8.6c3.5-2.2,7.6-3.2,12.6-3.2c4,0,7.6,0.7,10.8,2.2c3.2,1.5,5.5,3.3,7.1,5.5c1.6,2.2,2.6,4.6,3.2,7.3
		C207.7,139.7,208,144,208,149.9z M189.7,143.4c0-4.1-0.2-6.7-0.6-7.8c-0.4-1-1.3-1.6-2.6-1.6c-1.4,0-2.3,0.6-2.7,1.7
		c-0.4,1.1-0.7,3.7-0.7,7.7v38.1c0,4.5,0.2,7.3,0.6,8.2c0.4,0.9,1.3,1.4,2.6,1.4s2.2-0.5,2.7-1.6c0.4-1.1,0.6-3.6,0.6-7.4V143.4z"/>
	<path class="st0" d="M246.8,123.5v17l-11.7,61h-18.2l13-64h-18.1v-14H246.8z"/>
	<path class="st0" d="M284.7,123.5v17l-11.7,61h-18.2l13-64h-18.1v-14H284.7z"/>
	<path class="st0" d="M311.2,162.8v13.4h-24v-13.4H311.2z"/>
	<path class="st0" d="M355.9,123.5V136h-22.7v13.3c2.8-3.6,6.5-5.4,10.9-5.4c5,0,8.8,1.5,11.4,4.5c2.6,3,3.9,8.8,3.9,17.3v11.1
		c0,5.5-0.2,9.6-0.7,12.2c-0.5,2.6-1.6,5-3.2,7.2c-1.6,2.2-3.9,3.9-6.8,5.1c-2.9,1.2-6.5,1.8-10.7,1.8c-4.7,0-8.9-0.9-12.4-2.6
		c-3.6-1.8-6.1-4.4-7.6-7.8c-1.5-3.5-2.3-8.8-2.3-16.1v-4.2h18.3v4.9c0,5,0.2,8.6,0.5,10.7c0.3,2.1,1.5,3.2,3.4,3.2
		c0.9,0,1.6-0.3,2.2-0.9c0.6-0.6,0.9-1.3,0.9-2c0-0.7,0.1-3.8,0.2-9.2v-15.5c0-2.9-0.3-4.9-0.9-6c-0.6-1.1-1.5-1.6-2.8-1.6
		c-0.8,0-1.6,0.3-2.1,0.8c-0.6,0.5-0.9,1.1-1.1,1.8c-0.2,0.6-0.2,2.1-0.2,4.4H316l0.8-39.3H355.9z"/>
	<path class="st0" d="M400.6,157.3c2.7,1.2,4.7,2.9,6.2,5.2c1.4,2.3,2.2,7.8,2.2,16.4c0,6.3-0.6,10.9-1.7,13.9
		c-1.1,3-3.4,5.4-6.7,7.4c-3.3,1.9-7.8,2.9-13.3,2.9c-5.4,0-9.7-0.9-12.9-2.7c-3.2-1.8-5.4-4.3-6.8-7.3c-1.4-3-2.1-8.1-2.1-15.1
		c0-4.7,0.3-8.8,1-12.3c0.7-3.5,2.8-6.3,6.4-8.3c-2.3-1.2-4-3-5.1-5.5c-1.1-2.5-1.7-5.7-1.7-9.6c0-6.7,1.7-11.7,5.2-15.1
		c3.5-3.4,8.7-5,15.7-5c8.1,0,13.6,1.8,16.7,5.3c3.1,3.6,4.6,8.7,4.6,15.3c0,4.2-0.5,7.2-1.5,9.1
		C405.8,153.6,403.8,155.5,400.6,157.3z M390.7,173c0-3-0.3-5-0.9-6c-0.6-1-1.5-1.5-2.7-1.5c-1.2,0-2.1,0.5-2.6,1.4
		c-0.5,0.9-0.8,2.9-0.8,6v10.1c0,3.4,0.3,5.5,0.9,6.5c0.6,1,1.5,1.4,2.8,1.4c1.3,0,2.2-0.5,2.6-1.5c0.5-1,0.7-3.2,0.7-6.6V173z
		 M390.4,140.5c0-2.6-0.2-4.4-0.7-5.2c-0.4-0.9-1.3-1.3-2.5-1.3c-1.2,0-2,0.5-2.4,1.4c-0.4,0.9-0.6,2.6-0.6,5.1v5.9
		c0,2.3,0.2,4,0.7,4.9c0.5,0.9,1.3,1.3,2.4,1.3c1.2,0,2-0.4,2.4-1.3c0.4-0.9,0.6-2.7,0.6-5.5V140.5z"/>
	<path class="st0" d="M437.7,162.8v13.4h-24v-13.4H437.7z"/>
	<path class="st0" d="M477.4,157.3c2.7,1.2,4.7,2.9,6.2,5.2c1.4,2.3,2.2,7.8,2.2,16.4c0,6.3-0.6,10.9-1.7,13.9
		c-1.1,3-3.4,5.4-6.7,7.4c-3.3,1.9-7.8,2.9-13.3,2.9c-5.4,0-9.7-0.9-12.9-2.7c-3.2-1.8-5.4-4.3-6.8-7.3c-1.4-3-2.1-8.1-2.1-15.1
		c0-4.7,0.3-8.8,1-12.3c0.7-3.5,2.8-6.3,6.4-8.3c-2.3-1.2-4-3-5.1-5.5c-1.1-2.5-1.7-5.7-1.7-9.6c0-6.7,1.7-11.7,5.2-15.1
		c3.5-3.4,8.7-5,15.7-5c8.1,0,13.6,1.8,16.7,5.3c3.1,3.6,4.6,8.7,4.6,15.3c0,4.2-0.5,7.2-1.5,9.1
		C482.6,153.6,480.6,155.5,477.4,157.3z M467.5,173c0-3-0.3-5-0.9-6c-0.6-1-1.5-1.5-2.7-1.5c-1.2,0-2.1,0.5-2.6,1.4
		c-0.5,0.9-0.8,2.9-0.8,6v10.1c0,3.4,0.3,5.5,0.9,6.5c0.6,1,1.5,1.4,2.8,1.4c1.3,0,2.2-0.5,2.6-1.5c0.5-1,0.7-3.2,0.7-6.6V173z
		 M467.2,140.5c0-2.6-0.2-4.4-0.7-5.2c-0.4-0.9-1.3-1.3-2.5-1.3c-1.2,0-2,0.5-2.4,1.4c-0.4,0.9-0.6,2.6-0.6,5.1v5.9
		c0,2.3,0.2,4,0.7,4.9c0.5,0.9,1.3,1.3,2.4,1.3c1.2,0,2-0.4,2.4-1.3c0.4-0.9,0.6-2.7,0.6-5.5V140.5z"/>
	<path class="st0" d="M532,123.5V136h-22.7v13.3c2.8-3.6,6.5-5.4,10.9-5.4c5,0,8.8,1.5,11.4,4.5c2.6,3,3.9,8.8,3.9,17.3v11.1
		c0,5.5-0.2,9.6-0.7,12.2c-0.5,2.6-1.6,5-3.2,7.2c-1.6,2.2-3.9,3.9-6.8,5.1c-2.9,1.2-6.5,1.8-10.7,1.8c-4.7,0-8.9-0.9-12.4-2.6
		c-3.6-1.8-6.1-4.4-7.6-7.8c-1.5-3.5-2.3-8.8-2.3-16.1v-4.2h18.3v4.9c0,5,0.2,8.6,0.5,10.7c0.3,2.1,1.5,3.2,3.4,3.2
		c0.9,0,1.6-0.3,2.2-0.9c0.6-0.6,0.9-1.3,0.9-2c0-0.7,0.1-3.8,0.2-9.2v-15.5c0-2.9-0.3-4.9-0.9-6c-0.6-1.1-1.5-1.6-2.8-1.6
		c-0.8,0-1.6,0.3-2.1,0.8c-0.6,0.5-0.9,1.1-1.1,1.8c-0.2,0.6-0.2,2.1-0.2,4.4H492l0.8-39.3H532z"/>
</g>
</svg>
