<?xml version="1.0" encoding="UTF-8"?>
<!DOCTYPE svg PUBLIC "-//W3C//DTD SVG 1.1//EN" "http://www.w3.org/Graphics/SVG/1.1/DTD/svg11.dtd">
<!-- Creator: CorelDRAW X7 -->
<svg xmlns="http://www.w3.org/2000/svg" xml:space="preserve" width="549px" height="207px" version="1.1" shape-rendering="geometricPrecision" text-rendering="geometricPrecision" image-rendering="optimizeQuality" fill-rule="evenodd" clip-rule="evenodd"
viewBox="0 0 153 58"
 xmlns:xlink="http://www.w3.org/1999/xlink">
 <g id="Слой_x0020_1">
  <metadata id="CorelCorpID_0Corel-Layer"/>
  <path fill="#337AB7" fill-rule="nonzero" d="M4 18c0,0 0,1 0,1 0,1 1,1 1,1 1,0 1,0 2,-1 0,0 0,-1 0,-1l0 -13c0,0 0,-1 0,-1 -1,-1 -1,-1 -2,-1 0,0 -1,0 -1,1 0,0 0,1 0,1l0 13zm-4 -12c0,-2 0,-4 1,-5 1,-1 3,-1 4,-1 2,0 3,0 4,1 1,1 2,3 2,5l0 11c0,2 -1,3 -2,4 -1,1 -2,2 -4,2 -1,0 -3,-1 -4,-2 -1,-1 -1,-2 -1,-4l0 -11zm16 9l0 3c0,0 0,1 1,1 0,1 0,1 1,1 1,0 1,0 1,-1 1,0 1,-1 1,-1l0 -5c0,-1 0,-2 -1,-2 0,0 0,-1 -1,-1 -1,0 -1,1 -1,1 -1,0 -1,1 -1,2l0 0 -3 0 0 -13 10 0 0 3 -6 0 -1 6c1,-1 2,-2 3,-2 2,0 3,1 3,1 1,1 1,3 1,4l0 5c0,2 0,3 -1,4 -1,1 -2,2 -4,2 -2,0 -3,-1 -4,-2 -1,-1 -1,-2 -1,-4l0 -2 3 0zm13 3c0,0 0,1 0,1 1,1 1,1 2,1 0,0 1,0 1,-1 0,0 1,-1 1,-1l0 -13c0,0 -1,-1 -1,-1 0,-1 -1,-1 -1,-1 -1,0 -1,0 -2,1 0,0 0,1 0,1l0 13zm-4 -12c0,-2 1,-4 2,-5 1,-1 2,-1 4,-1 1,0 3,0 4,1 1,1 1,3 1,5l0 11c0,2 0,3 -1,4 -1,1 -3,2 -4,2 -2,0 -3,-1 -4,-2 -1,-1 -2,-2 -2,-4l0 -11zm13 4l7 0 0 3 -7 0 0 -3zm12 8c0,0 0,1 1,1 0,1 0,1 1,1 1,0 1,0 1,-1 1,0 1,-1 1,-1l0 -13c0,0 0,-1 -1,-1 0,-1 0,-1 -1,-1 -1,0 -1,0 -1,1 -1,0 -1,1 -1,1l0 13zm-3 -12c0,-2 0,-4 1,-5 1,-1 2,-1 4,-1 2,0 3,0 4,1 1,1 1,3 1,5l0 11c0,2 0,3 -1,4 -1,1 -2,2 -4,2 -2,0 -3,-1 -4,-2 -1,-1 -1,-2 -1,-4l0 -11zm23 -6l0 3 -5 20 -4 0 5 -20 -7 0 0 -3 11 0zm13 0l0 3 -6 20 -3 0 5 -20 -7 0 0 -3 11 0zm2 10l6 0 0 3 -6 0 0 -3zm12 5l0 3c0,0 0,1 0,1 1,1 1,1 2,1 0,0 1,0 1,-1 0,0 0,-1 0,-1l0 -5c0,-1 0,-2 0,-2 0,0 -1,-1 -1,-1 -1,0 -1,1 -2,1 0,0 0,1 0,2l0 0 -4 0 1 -13 9 0 0 3 -6 0 0 6c1,-1 2,-2 3,-2 1,0 2,1 3,1 1,1 1,3 1,4l0 5c0,2 0,3 -1,4 -1,1 -3,2 -4,2 -2,0 -3,-1 -4,-2 -1,-1 -2,-2 -2,-4l0 -2 4 0zm20 2c0,2 -1,3 -2,4 0,1 -2,2 -4,2 -1,0 -3,-1 -4,-2 -1,-1 -1,-2 -1,-4l0 -1c0,-2 0,-3 0,-3 1,-1 1,-2 2,-2 -1,-1 -2,-2 -2,-5l0 0c0,-2 0,-4 1,-5 1,-1 3,-1 4,-1 2,0 4,0 4,1 1,1 2,3 2,5l0 0c0,3 -1,4 -2,5 0,0 1,1 1,2 1,0 1,1 1,3l0 1zm-8 0c0,1 1,2 1,2 0,1 1,1 1,1 1,0 1,0 2,-1 0,0 0,-1 0,-2l0 -2c0,-1 0,-1 0,-2 -1,0 -1,0 -2,0 0,0 -1,0 -1,0 0,1 -1,1 -1,2l0 2zm0 -10c0,1 1,2 1,2 0,0 1,0 1,0 1,0 1,0 2,0 0,0 0,-1 0,-2l0 -1c0,-1 0,-2 0,-2 -1,-1 -1,-1 -2,-1 0,0 -1,0 -1,1 0,0 -1,1 -1,2l0 1zm10 3l6 0 0 3 -6 0 0 -3zm19 7c0,2 0,3 -1,4 -1,1 -3,2 -4,2 -2,0 -3,-1 -4,-2 -1,-1 -2,-2 -2,-4l0 -1c0,-2 0,-3 1,-3 0,-1 1,-2 1,-2 -1,-1 -2,-2 -2,-5l0 0c0,-2 1,-4 2,-5 1,-1 2,-1 4,-1 1,0 3,0 4,1 1,1 1,3 1,5l0 0c0,3 -1,4 -2,5 1,0 1,1 2,2 0,0 0,1 0,3l0 1zm-7 0c0,1 0,2 0,2 1,1 1,1 2,1 0,0 1,0 1,-1 0,0 1,-1 1,-2l0 -2c0,-1 0,-1 -1,-2 0,0 -1,0 -1,0 -1,0 -1,0 -2,0 0,1 0,1 0,2l0 2zm0 -10c0,1 0,2 0,2 1,0 1,0 2,0 0,0 1,0 1,0 0,0 1,-1 1,-2l0 -1c0,-1 -1,-2 -1,-2 0,-1 -1,-1 -1,-1 -1,0 -1,0 -2,1 0,0 0,1 0,2l0 1zm12 8l0 3c0,0 1,1 1,1 0,1 1,1 1,1 1,0 1,0 2,-1 0,0 0,-1 0,-1l0 -5c0,-1 0,-2 0,-2 -1,0 -1,-1 -2,-1 0,0 -1,1 -1,1 0,0 -1,1 -1,2l0 0 -3 0 1 -13 9 0 0 3 -6 0 0 6c0,-1 1,-2 3,-2 1,0 2,1 3,1 0,1 1,3 1,4l0 5c0,2 -1,3 -2,4 -1,1 -2,2 -4,2 -1,0 -3,-1 -4,-2 0,-1 -1,-2 -1,-4l0 -2 3 0zm-137 37c0,1 0,2 0,2 1,1 1,1 2,1 0,0 1,0 1,-1 0,0 1,-1 1,-2l0 -12c0,0 -1,-1 -1,-1 0,-1 -1,-1 -1,-1 -1,0 -1,0 -2,1 0,0 0,1 0,1l0 12zm-4 -11c0,-2 1,-4 2,-5 1,-1 2,-1 4,-1 2,0 3,0 4,1 1,1 1,3 1,5l0 11c0,2 0,3 -1,4 -1,1 -2,2 -4,2 -2,0 -3,-1 -4,-2 -1,-1 -2,-2 -2,-4l0 -11zm13 0c0,-2 1,-4 2,-5 0,-1 2,-1 4,-1 1,0 3,0 4,1 0,1 1,3 1,5l0 0 -3 0 0 -1c0,0 -1,-1 -1,-1 0,-1 -1,-1 -1,-1 -1,0 -1,0 -2,1 0,0 0,1 0,2l0 4c0,-1 1,-2 3,-2 1,0 2,0 3,1 1,1 1,2 1,4l0 4c0,2 -1,3 -1,4 -1,1 -3,2 -4,2 -2,0 -3,-1 -4,-2 -1,-1 -2,-2 -2,-4l0 -11zm6 5c-1,0 -1,0 -2,1 0,0 0,1 0,1l0 4c0,1 0,2 0,2 1,0 1,1 2,1 0,0 1,-1 1,-1 0,0 0,-1 0,-2l0 -4c0,0 0,-1 0,-1 0,-1 -1,-1 -1,-1zm17 -11l0 3 -5 20 -3 0 5 -20 -7 0 0 -3 10 0zm3 10l6 0 0 3 -6 0 0 -3zm12 7c0,1 0,2 0,2 1,1 1,1 2,1 0,0 1,0 1,-1 0,0 0,-1 0,-2l0 -12c0,0 0,-1 0,-1 0,-1 -1,-1 -1,-1 -1,0 -1,0 -2,1 0,0 0,1 0,1l0 12zm-4 -11c0,-2 1,-4 2,-5 0,-1 2,-1 4,-1 1,0 3,0 3,1 1,1 2,3 2,5l0 11c0,2 -1,3 -2,4 0,1 -2,2 -3,2 -2,0 -4,-1 -4,-2 -1,-1 -2,-2 -2,-4l0 -11zm23 -6l0 3 -5 20 -3 0 5 -20 -7 0 0 -3 10 0zm13 0l0 3 -5 20 -4 0 6 -20 -7 0 0 -3 10 0zm2 10l7 0 0 3 -7 0 0 -3zm12 5l0 2c0,1 0,2 1,2 0,0 1,1 1,1 1,0 1,-1 1,-1 1,0 1,-1 1,-2l0 -4c0,-1 0,-2 -1,-2 0,-1 0,-1 -1,-1 0,0 -1,0 -1,1 -1,0 -1,1 -1,2l0 0 -3 0 1 -13 9 0 0 3 -6 0 -1 6c1,-1 2,-2 4,-2 1,0 2,1 2,1 1,1 1,3 1,4l0 5c0,2 0,3 -1,4 -1,1 -2,2 -4,2 -2,0 -3,-1 -4,-2 -1,-1 -1,-2 -1,-4l0 -2 3 0zm20 2c0,2 0,3 -1,4 -1,1 -2,2 -4,2 -2,0 -3,-1 -4,-2 -1,-1 -2,-2 -2,-4l0 -2c0,-1 1,-2 1,-2 0,-1 1,-2 2,-2 -2,-1 -3,-2 -3,-5l0 0c0,-2 1,-4 2,-5 1,-1 2,-1 4,-1 2,0 3,0 4,1 1,1 1,3 1,5l0 0c0,2 0,4 -2,5 1,0 2,1 2,2 0,0 0,1 0,2l0 2zm-7 0c0,1 0,2 0,2 1,1 1,1 2,1 0,0 1,0 1,-1 1,0 1,-1 1,-2l0 -2c0,-1 0,-1 -1,-2 0,0 -1,0 -1,0 -1,0 -1,0 -2,0 0,1 0,1 0,2l0 2zm0 -10c0,1 0,1 0,2 1,0 1,0 2,0 0,0 1,0 1,0 1,-1 1,-1 1,-2l0 -1c0,-1 0,-2 -1,-2 0,-1 -1,-1 -1,-1 -1,0 -1,0 -2,1 0,0 0,1 0,2l0 1zm9 3l7 0 0 3 -7 0 0 -3zm20 7c0,2 -1,3 -2,4 -1,1 -2,2 -4,2 -2,0 -3,-1 -4,-2 -1,-1 -1,-2 -1,-4l0 -2c0,-1 0,-2 0,-2 1,-1 1,-2 2,-2 -2,-1 -2,-2 -2,-5l0 0c0,-2 0,-4 1,-5 1,-1 2,-1 4,-1 2,0 3,0 4,1 1,1 2,3 2,5l0 0c0,2 -1,4 -2,5 0,0 1,1 1,2 1,0 1,1 1,2l0 2zm-8 0c0,1 0,2 1,2 0,1 1,1 1,1 1,0 1,0 2,-1 0,0 0,-1 0,-2l0 -2c0,-1 0,-1 0,-2 -1,0 -1,0 -2,0 0,0 -1,0 -1,0 -1,1 -1,1 -1,2l0 2zm0 -10c0,1 0,1 1,2 0,0 1,0 1,0 1,0 1,0 2,0 0,-1 0,-1 0,-2l0 -1c0,-1 0,-2 0,-2 -1,-1 -1,-1 -2,-1 0,0 -1,0 -1,1 -1,0 -1,1 -1,2l0 1zm13 8l0 2c0,1 0,2 0,2 1,0 1,1 2,1 0,0 1,-1 1,-1 0,0 1,-1 1,-2l0 -4c0,-1 -1,-2 -1,-2 0,-1 -1,-1 -1,-1 -1,0 -1,0 -2,1 0,0 0,1 0,2l0 0 -3 0 0 -13 10 0 0 3 -7 0 0 6c1,-1 2,-2 3,-2 2,0 3,1 3,1 1,1 1,3 1,4l0 5c0,2 0,3 -1,4 -1,1 -2,2 -4,2 -2,0 -3,-1 -4,-2 -1,-1 -1,-2 -1,-4l0 -2 3 0z"/>
 </g>
</svg>
